<svg xmlns="http://www.w3.org/2000/svg" viewBox="0 0 57.02 58.51"><defs><style>.cls-1{fill:#e2e2e2;}</style></defs><title>b beli </title><g id="Layer_2" data-name="Layer 2"><g id="Layer_1-2" data-name="Layer 1"><path class="cls-1" d="M52.74,25a16.28,16.28,0,0,0-9.49-1.43s13.8-5,12.22-13.8S23.3-2,0,1.31c0,0-.15,14.94,4.45,21.7s9.2,7.19,8.76,16.67c0,0,8.48-1.86,14,2.73A17.48,17.48,0,0,0,39.23,46.3s5.32-1.15,14.66,12.21C53.89,58.51,61.65,29.05,52.74,25Zm-31-18.11c12.37.29,17.54,1.87,18.55,2.3s5.46,4.75,0,10.21S20,29.26,20,29.26C22.41,24.15,21.69,6.91,21.69,6.91ZM36.93,39.4c-4-.43-12.65-2.59-17-2.16s0-4.74,0-4.74,10.49-3,13.8-4.6,11.78-.29,11.93,4.6S41,39.83,36.93,39.4Z"/></g></g></svg>