<?xml version="1.0" encoding="UTF-8"?>
<svg id="Layer_2" data-name="Layer 2" xmlns="http://www.w3.org/2000/svg" viewBox="0 0 97.34 97.03">
  <defs>
    <style>
      .cls-1 {
        fill: #a3a3a3;
        stroke-width: 0px;
      }
    </style>
  </defs>
  <g id="Layer_1-2" data-name="Layer 1">
    <g>
      <path class="cls-1" d="m7.09,54.72c.77-5.03,3.38-10.19,7.3-15.04,8.06-9.97,21.68-18.61,36.3-22.06,3.53-.83,6.89-1.31,10.05-1.47,8.21-.4,15.01,1.41,19.48,4.95,1.8,1.42,3.23,3.13,4.21,5.07l-5.81-11.44c-.06-.12-.13-.24-.2-.36-.04-.07-.08-.14-.12-.22-.03-.05-.05-.1-.09-.15-.01-.03-.02-.04-.03-.07,0,0-.02-.02-.02-.03l-.02-.03s-.03-.05-.04-.07c-.01-.01-.02-.02-.02-.04-.03-.03-.04-.07-.07-.11-.06-.12-.14-.23-.21-.34-.24-.42-.5-.83-.73-1.21-.08-.13-.16-.25-.24-.36-.02-.03-.06-.09-.12-.16-.04-.05-.07-.1-.12-.17-.06-.08-.13-.17-.21-.29-.02-.01-.03-.03-.04-.05-.1-.13-.2-.26-.32-.41-.25-.32-.54-.67-.84-1.01-.16-.19-.32-.37-.48-.54-.32-.32-.63-.64-.93-.92-.02-.02-.05-.05-.07-.07-.07-.07-.15-.14-.23-.21-.76-.68-1.67-1.44-2.39-2.01-.02-.02-.05-.04-.07-.05-.99-.66-2.34-1.51-3.38-2.1-.05-.02-.1-.05-.15-.08-1.15-.59-2.35-1.12-3.61-1.58-.14-.05-.28-.1-.42-.15,0,0-.02-.01-.03,0-.9-.3-1.99-.61-2.91-.86-.13-.03-.25-.07-.38-.1-.07-.02-.15-.03-.22-.05-.25-.06-.49-.11-.75-.16-.45-.09-.88-.17-1.3-.24-.21-.03-.41-.07-.6-.09-.13-.02-.26-.04-.4-.06-.52-.06-1.07-.12-1.59-.18-.18-.02-.36-.04-.53-.05-.16-.02-.33-.03-.48-.03-.14,0-.27-.02-.39-.03-.02,0-.04,0-.07,0-.19-.01-.37-.02-.54-.03-.54-.03-1.07-.04-1.56-.05-.26,0-.5,0-.74,0-.36,0-.69.01-.99.02-.12,0-.24,0-.35.01-.79.02-1.27.06-1.28.07-.96.09-1.75.16-2.45.23-.12.02-.24.03-.36.04-.11,0-.23.02-.33.04-.1.01-.2.02-.3.04-.4.06-.82.11-1.22.18-.16.03-.32.05-.48.08,0,0-.02,0-.04,0-.13.02-.27.05-.41.08-.54.11-1.19.23-1.82.36-.24.06-.49.11-.72.16-.12.03-.23.05-.33.08-.61.16-1.29.34-1.99.53-.24.07-.48.14-.73.21-.93.27-1.85.56-2.65.81-.06.02-.12.04-.19.06-1.44.49-3.26,1.18-5.33,2.13-.57.28-1.3.62-1.94.93-.11.05-.22.1-.32.16-.36.17-.71.36-1.06.55-.36.19-.73.41-1.09.59-.12.06-.23.13-.35.19-.03.01-.05.03-.08.04-.07.04-.14.08-.21.12-.67.38-1.36.8-2.05,1.23-.03.01-.05.03-.07.05-.88.57-1.76,1.16-2.52,1.66-.05.03-.09.06-.12.09-1.33.97-3.05,2.3-4.33,3.34,0,0,0,0-.01.01-.51.44-1.1.96-1.77,1.58-.79.74-1.58,1.53-2.22,2.18-.01.02-.1.1-.23.25-.03.03-.07.07-.1.11-.03.04-.08.08-.11.12-.95,1.07-2.08,2.39-2.92,3.44h0s-.01.02-.02.03c-.02.02-.05.07-.1.13-.09.12-.18.25-.28.37-.05.07-.1.14-.16.21-.04.05-.07.09-.1.14-.57.78-1.1,1.57-1.6,2.37-.14.21-.26.42-.39.63-.13.22-.25.43-.38.65-.03.06-.07.13-.11.19-.05.09-.1.18-.15.28-.07.11-.13.23-.2.36-.09.15-.16.3-.24.44-.07.14-.14.28-.22.42-.07.13-.13.26-.2.4-.07.14-.14.28-.21.43-.42.88-.88,1.92-1.28,3.05-.3.88-.64,2.02-.92,3.02,0,.02-.01.04-.01.06-.16.68-.32,1.42-.45,2.09-.01.06-.03.12-.04.18-.03.19-.06.37-.1.53-.03.21-.05.44-.08.67,0,0,0,.02,0,.02,0,0,0,.02,0,.02,0,.01,0,.03,0,.04,0,.02,0,.03,0,.06-.02.12-.03.25-.05.38-.02.26-.05.52-.07.79h0c-.01.18-.03.35-.04.52,0,.17-.02.34-.03.51,0,.15-.02.3-.02.44,0,.17-.01.35-.02.51,0,.12,0,.24,0,.36,0,.83.07,1.84.16,2.74,0,0,0,0,0,.02.11.67.22,1.47.36,2.25.02.11.04.22.07.33.03.13.06.25.08.37.07.33.15.64.24.92.06.22.14.45.21.69.16.49.34,1.02.51,1.49.02.04.03.08.05.12.2.5.44,1.07.68,1.59.02.02.02.04.03.06s.01.03.02.05h0s.03.07.05.11c.03.08.07.15.1.22l.11.21s.05.1.08.14c1.73,3.42,4.01,7.91,5.72,11.29-.96-1.89-1.52-4.03-1.59-6.37-.05-1.15.02-2.35.21-3.6Z"/>
      <path class="cls-1" d="m12.77,73.13c-.03-.05-.06-.12-.08-.17-.07-.15-.13-.29-.19-.44-.17-.4-.31-.81-.44-1.22h0c-.21-.7-.37-1.41-.49-2.15-.04-.23-.07-.47-.09-.72-.03-.25-.05-.51-.07-.77-.01-.2-.02-.41-.03-.62,0-.13,0-.26,0-.4,0-.18,0-.35,0-.52,0-.02,0-.05,0-.07,0-.19.01-.4.03-.59,0-.09,0-.19.02-.29.02-.18.03-.37.05-.56.03-.33.07-.65.12-.99,2.35-15.36,21.86-31.97,43.61-37.09,8.99-2.12,16.95-1.95,23.03.07.32.1.62.21.92.33.29.1.57.22.84.34.06.02.12.04.17.07.19.08.38.16.57.25.12.05.23.11.35.17.16.07.32.15.47.24.1.04.19.09.29.15.23.12.46.25.68.38.26.15.51.3.76.47.31.2.62.41.92.63.16.12.31.24.47.35.28.22.55.44.8.67.14.12.28.24.41.37.05.05.12.11.17.17.18.17.35.36.52.54.17.18.34.37.5.57.18.21.36.43.53.66,0,0,0,0,0,0h0c.03.05.07.09.09.14.14.19.27.38.4.58.15.23.3.46.43.7.03.05.06.09.09.15l-1.88-3.74s.02.05.03.08c-.04-.09-.08-.17-.13-.25-.05-.11-.11-.21-.17-.31-.11-.2-.22-.4-.34-.59-.17-.3-.35-.58-.55-.85-.08-.11-.16-.23-.25-.35-.14-.19-.29-.38-.44-.56-.12-.14-.25-.29-.37-.43-.04-.05-.08-.1-.12-.14-.13-.14-.26-.28-.4-.42-.03-.03-.06-.06-.09-.1-.15-.15-.31-.31-.48-.46-.02-.02-.03-.03-.05-.05-.16-.15-.32-.29-.48-.43-.04-.03-.07-.06-.11-.08-.15-.13-.31-.26-.48-.39-.04-.03-.09-.07-.13-.09-.16-.13-.33-.25-.51-.37-.41-.3-.84-.57-1.3-.83-.14-.09-.29-.18-.45-.26-.11-.07-.21-.12-.33-.18-.13-.07-.27-.14-.4-.21-.11-.06-.22-.12-.34-.17-.14-.07-.28-.14-.43-.2-.17-.09-.35-.16-.54-.24-.06-.03-.12-.05-.18-.07-.27-.12-.56-.24-.84-.34-.3-.11-.6-.22-.92-.33-6.08-2.02-14.04-2.19-23.03-.07C31.22,27.21,11.69,43.82,9.35,59.17c-.05.33-.1.66-.12.99-.03.19-.04.37-.05.56,0,.1-.01.19-.02.29-.01.2-.02.4-.03.6,0,.03,0,.05,0,.07,0,.17,0,.35,0,.52,0,.13,0,.26,0,.4.02.66.08,1.31.17,1.94.03.21.06.41.1.61.04.21.08.41.13.61.04.19.09.37.14.56.11.41.23.81.37,1.2.07.19.14.37.21.56.05.13.11.28.17.41.06.14.12.27.19.4.04.09.08.19.13.28l2.12,4.17c.02.05.05.1.07.15l.04.07s0-.02,0-.02c-.07-.12-.13-.25-.19-.38Z"/>
      <path class="cls-1" d="m95.26,55.49c0,.16,0,.32,0,.5,0,.13,0,.27-.02.41v.04s0,.04,0,.04c0,.05,0,.09,0,.13v.08s-.02.09-.02.09c-.03.42-.08.86-.15,1.32-1.06,6.94-5.96,14.44-13.82,21.12-7.99,6.8-18.01,11.87-28.21,14.28-.48.12-1.01.23-1.62.36-.44.09-.88.18-1.31.26l-.26.05c-1.08.19-2.12.34-3.09.46-.85.1-1.59.17-2.25.22-.49.03-.98.06-1.46.08h-.22c-.4.02-.79.03-1.18.04h-.35s-.36,0-.36,0c-.63,0-1.3-.03-2.03-.06-2.83-.17-5.45-.65-7.76-1.42-.28-.09-.56-.19-.84-.3h-.02s-.02-.01-.02-.01c-.22-.08-.45-.17-.72-.29l-.24-.11h-.03c-.14-.06-.27-.13-.4-.19l-.06-.03-.07-.03s-.09-.04-.14-.06l-.04-.02-.04-.02c-.11-.05-.22-.1-.32-.16l-.12-.07-.1-.04s-.06-.03-.09-.05h-.02s-.02-.02-.02-.02c-.19-.1-.39-.21-.6-.33-.24-.14-.46-.27-.66-.4h-.02s-.02-.03-.02-.03c-.19-.12-.38-.25-.57-.39h-.02s-.02-.03-.02-.03c-.08-.06-.17-.12-.25-.18l-.03-.02-.03-.02c-.27-.2-.48-.37-.68-.55l-.04-.04-.05-.04c-.09-.07-.17-.14-.25-.22l-.07-.07-.08-.06-.08-.08-.09-.07c-.07-.06-.1-.09-.12-.11l-.07-.08-.08-.07c-.12-.11-.24-.24-.38-.39-.08-.08-.15-.17-.22-.25l-.19-.22s-.02-.02-.03-.03l-.02-.02-.02-.02c-.14-.17-.27-.34-.39-.49-.14-.19-.28-.38-.4-.58v-.02s-.02-.02-.02-.02c-.12-.18-.24-.37-.36-.58-.11-.19-.21-.36-.28-.51l-.22-.46-.03-.02-1.98-3.91v-.02s-.02-.02-.02-.02l-.07-.13v-.03s-.06-.1-.06-.1c-.04-.09-.09-.18-.13-.26l-.03-.06h0s0-.03,0-.03l-.03-.06c-.05-.1-.1-.21-.14-.33v-.04s-.03-.04-.03-.04c-.19-.45-.36-.96-.5-1.5l-.03-.11c-.03-.1-.06-.2-.07-.3v-.04s-.02-.04-.02-.04c-.04-.17-.07-.33-.1-.5-.03-.17-.06-.34-.09-.54-.05-.35-.09-.73-.12-1.15-.02-.4-.03-.76-.02-1.13,0-.18,0-.36.02-.54v-.06s0-.06,0-.06c0-.16.02-.32.02-.46.01-.14.02-.28.04-.42v-.04s0-.04,0-.04c.02-.25.06-.52.11-.85,1.06-6.94,5.97-14.44,13.83-21.12,7.99-6.8,18.01-11.87,28.21-14.28.49-.12,1-.23,1.63-.36.44-.09.88-.18,1.31-.26l.26-.05c1.08-.19,2.13-.34,3.09-.46.85-.1,1.59-.17,2.25-.22.49-.03.98-.06,1.46-.08.44-.02.9-.03,1.43-.04.1,0,.19,0,.28,0,.11,0,.23,0,.34,0h.02s.02,0,.02,0c.78,0,1.45.03,2.03.06,2.83.17,5.44.65,7.76,1.42.29.1.56.19.83.3h.02s.02.01.02.01c.22.08.45.17.71.28l.18.08h.02s.02.01.02.01c.16.07.32.14.5.22.1.05.2.1.31.15l.05.03.05.02c.1.04.15.07.17.08l.09.05.09.04c.3.14.57.29.82.44l.03.02.03.02c.22.13.44.26.64.39.19.13.38.25.57.38l.04.03.04.03c.08.06.17.12.25.18l.03.02.03.02c.19.14.44.33.65.52l.03.03.03.03c.12.1.23.19.34.29l.02.02.14.12c.13.11.25.24.37.36h.01s.01.03.01.03c.2.2.4.41.58.63l.03.03.03.03c.06.07.12.14.18.21v.02s.03.02.03.02c.28.34.51.65.71.95l.04.06.04.06s.03.04.06.09l.07.12.08.11c.04.06.08.13.12.2v.02s.03.02.03.02c.09.14.17.29.25.44l.05.1.02.04,2.29,4.52h0s0,.02,0,.03l.03.05.03.05s0,0,0,0l.03.06v.02s.03.04.03.04v.02s.02.02.02.03l.24.55c.14.32.28.69.41,1.12v.02s.01.02.01.02c.06.18.11.37.15.54.05.21.1.41.13.59v.05s.02.05.02.05c.04.17.07.35.1.53,0,.04.01.08.02.13.03.19.05.37.07.54v.04s0,.04,0,.04c.02.18.04.38.05.63.01.17.02.34.02.51v.03s0,.03,0,.03c0,.12,0,.23,0,.35v.02s0,.02,0,.02Zm-1.96-11.8l-.66-1.34-.5-.98-.86-1.69-.1-.18c-.05-.11-.11-.21-.17-.3-.1-.21-.22-.41-.34-.59-.17-.3-.35-.58-.55-.85-.08-.11-.16-.23-.25-.35-.14-.19-.29-.38-.44-.56-.12-.14-.25-.29-.38-.43-.04-.05-.08-.1-.12-.14-.13-.15-.26-.28-.4-.42-.03-.03-.06-.06-.09-.1-.16-.15-.32-.31-.48-.46-.01-.02-.03-.03-.04-.05-.18-.15-.35-.31-.53-.46-.17-.15-.35-.29-.54-.44-.04-.03-.09-.06-.13-.1-.17-.12-.34-.25-.5-.37-.41-.29-.85-.57-1.3-.83-.15-.09-.3-.18-.45-.26-.1-.07-.21-.12-.33-.18-.12-.08-.26-.14-.39-.21-.1-.06-.22-.12-.33-.17-.15-.08-.31-.15-.46-.21s-.3-.15-.46-.2c-.08-.04-.17-.08-.25-.12-.27-.11-.54-.22-.82-.33-.29-.11-.59-.21-.9-.32-6.08-2.03-14.05-2.21-23.05-.08-21.74,5.12-41.26,21.74-43.61,37.09-.06.33-.1.66-.12.98-.02.2-.04.39-.06.57,0,.07,0,.15,0,.21-.02.24-.03.46-.03.7-.01.2-.01.4,0,.6,0,.34,0,.68.03,1,.01.24.03.48.06.73.08.77.21,1.51.41,2.23.05.2.1.4.17.59.12.44.28.86.44,1.27.05.14.11.28.17.41.06.13.12.27.19.4.04.1.08.19.13.28l1.93,3.8s.15.29.14.26c.04.08.09.18.13.26.02.04.04.09.06.13l.1.18,2.02,3.99c.02.06.05.1.08.15l.05.1s0,.02.02.03c.01.03.02.05.03.06.11.23.24.44.36.66.13.24.28.47.43.7s.31.45.47.67c.15.21.3.4.47.6.05.06.09.11.14.17.14.15.27.31.41.47.16.18.33.35.5.51.1.11.21.21.33.31.07.08.14.14.22.21.12.12.26.24.41.35.26.24.54.45.82.66.12.1.26.19.39.28.22.15.44.3.66.44.24.17.5.31.76.47.22.12.46.26.68.37.1.06.19.11.29.15.15.09.31.16.47.24.11.06.22.11.34.16.2.1.41.19.62.28.03.02.08.04.12.05.28.12.56.24.85.34.3.12.62.23.92.33,2.48.82,5.26,1.33,8.29,1.52.71.03,1.42.06,2.14.06.25,0,.48,0,.73,0,.49,0,.98-.02,1.49-.04.49-.02,1-.05,1.51-.08.77-.06,1.54-.14,2.33-.23,1.06-.12,2.13-.28,3.22-.47.54-.1,1.09-.21,1.64-.33.56-.11,1.11-.24,1.68-.37,21.74-5.13,41.26-21.74,43.6-37.11.08-.5.14-1,.17-1.49.02-.12.02-.24.03-.36.01-.17.02-.35.02-.51,0-.19.01-.39.01-.58,0-.16,0-.31,0-.47,0-.21-.01-.41-.03-.62-.01-.26-.03-.52-.06-.77-.03-.24-.06-.48-.09-.71,0-.03,0-.06-.01-.08-.04-.24-.08-.46-.13-.68-.04-.24-.1-.48-.16-.72-.06-.24-.12-.47-.2-.7-.14-.46-.3-.91-.49-1.33,0,0,0-.01,0-.02-.09-.21-.19-.42-.28-.63,0,0,0-.01,0-.02-.04-.08-.08-.17-.12-.24-.02-.05-.03-.09-.06-.12l-.21-.43-.57-1.12-1.43-2.8s-.03-.07-.06-.1c-.02-.04-.03-.08-.06-.11l-.05-.09"/>
    </g>
  </g>
</svg>