<svg xmlns="http://www.w3.org/2000/svg" viewBox="0 0 285 87.87"><defs><style>.cls-1{fill:#a3a3a3;}</style></defs><title>brojaci kartica</title><g id="Layer_2" data-name="Layer 2"><g id="Layer_1-2" data-name="Layer 1"><circle class="cls-1" cx="88.06" cy="27.97" r="7.57"/><circle class="cls-1" cx="103.2" cy="27.97" r="7.57"/><circle class="cls-1" cx="118.35" cy="27.97" r="7.57"/><circle class="cls-1" cx="133.49" cy="27.97" r="7.57"/><circle class="cls-1" cx="148.63" cy="27.97" r="7.57"/><circle class="cls-1" cx="163.77" cy="27.97" r="7.57"/><circle class="cls-1" cx="178.92" cy="27.97" r="7.57"/><circle class="cls-1" cx="194.06" cy="27.97" r="7.57"/><circle class="cls-1" cx="209.2" cy="27.97" r="7.57"/><circle class="cls-1" cx="224.35" cy="27.97" r="7.57"/><circle class="cls-1" cx="239.49" cy="27.97" r="7.57"/><rect class="cls-1" x="33.7" y="27.62" width="214.55" height="0.7"/><polygon class="cls-1" points="254.34 29.73 254.34 26.21 251.29 24.46 248.25 26.21 248.25 29.73 251.29 31.48 254.34 29.73"/><polygon class="cls-1" points="36.75 29.73 36.75 26.21 33.7 24.46 30.66 26.21 30.66 29.73 33.7 31.48 36.75 29.73"/><circle class="cls-1" cx="88.06" cy="59.9" r="7.57"/><circle class="cls-1" cx="103.2" cy="59.9" r="7.57"/><circle class="cls-1" cx="118.35" cy="59.9" r="7.57"/><circle class="cls-1" cx="133.49" cy="59.9" r="7.57"/><circle class="cls-1" cx="148.63" cy="59.9" r="7.57"/><circle class="cls-1" cx="163.77" cy="59.9" r="7.57"/><circle class="cls-1" cx="178.92" cy="59.9" r="7.57"/><circle class="cls-1" cx="194.06" cy="59.9" r="7.57"/><circle class="cls-1" cx="209.2" cy="59.9" r="7.57"/><circle class="cls-1" cx="224.35" cy="59.9" r="7.57"/><circle class="cls-1" cx="239.49" cy="59.9" r="7.57"/><rect class="cls-1" x="33.7" y="59.55" width="214.55" height="0.7"/><polygon class="cls-1" points="254.34 61.66 254.34 58.14 251.29 56.38 248.25 58.14 248.25 61.66 251.29 63.41 254.34 61.66"/><polygon class="cls-1" points="36.75 61.66 36.75 58.14 33.7 56.38 30.66 58.14 30.66 61.66 33.7 63.41 36.75 61.66"/><path class="cls-1" d="M279.62,87.87H147V87a4.49,4.49,0,1,0-9,0v.9H5.38V87A4.49,4.49,0,0,0,.9,82.48H0V5.38H.9A4.49,4.49,0,0,0,5.38.9V0H138V.9a4.49,4.49,0,0,0,9,0V0H279.62V.9a4.49,4.49,0,0,0,4.48,4.48h.9v77.1h-.9A4.49,4.49,0,0,0,279.62,87Zm-130.9-1.8H277.89a6.29,6.29,0,0,1,5.31-5.32V7.11a6.28,6.28,0,0,1-5.31-5.32H148.72a6.28,6.28,0,0,1-12.43,0H7.11A6.28,6.28,0,0,1,1.79,7.11V80.75a6.29,6.29,0,0,1,5.32,5.32H136.29a6.28,6.28,0,0,1,12.43,0Z"/></g></g></svg>