<svg xmlns="http://www.w3.org/2000/svg" viewBox="0 0 140.53 97.11"><defs><style>.cls-1{fill:#a3a3a3;}</style></defs><title>drzac kartica</title><g id="Layer_2" data-name="Layer 2"><g id="Layer_1-2" data-name="Layer 1"><path class="cls-1" d="M140.53,57.58a47.42,47.42,0,0,0-2.64,4c-4.3,7.41-5.64,11.51-8.13,11.51-1.12,0-2.47-.82-4.43-2.52a12.3,12.3,0,0,0-8-3.24c-4.3,0-8.31,2.72-10,8.35-1.83,5.85-4.77,8.19-9.51,8.19a34.25,34.25,0,0,1-10-2.07,28.62,28.62,0,0,0-8.25-1.72c-3.29,0-3.78,1.63-4.31,3-.83,2,0,7.35-.72,11.24a3.07,3.07,0,0,1-2.91,2.81c-1.6,0-3.43-1.37-4.38-4.45-1.77-5.72-11.3-11.84-11.3-11.84V74.07A55.23,55.23,0,0,0,28,60.17C10.9,57.31,0,41.89,0,41.89V32.76s.3.43.89,1.16V41.6c1.4,1.87,11.83,15.12,27.21,17.7A55.57,55.57,0,0,1,56.48,73.45l.26.25v6.64c1.9,1.27,9.62,6.73,11.26,12.07.88,2.81,2.46,3.81,3.54,3.81s1.8-.79,2-2.08a33.4,33.4,0,0,0,.31-6,17,17,0,0,1,.46-5.44l.07-.17c.53-1.33,1.32-3.34,5.07-3.34A29.8,29.8,0,0,1,88,81c4.24,1.37,7.33,2,9.73,2,4.48,0,7-2.19,8.66-7.57,1.74-5.61,5.82-9,10.9-9a13.28,13.28,0,0,1,8.61,3.46c1.8,1.57,3,2.3,3.85,2.3,1.32,0,2.53-2.24,4.53-6,.81-1.49,1.71-3.18,2.84-5.12.68-1.17,1.45-2.37,2.29-3.54a104.43,104.43,0,0,1-7.74-11.43c-1.15-3-2.47-6.14-3.92-9.14A108.36,108.36,0,0,0,140.53,57.58Z"/><path class="cls-1" d="M131.68,46.19c-1.15-3-2.47-6.14-3.92-9.14-.08-.15-.16-.3-.23-.46a64.42,64.42,0,0,0-6.08-10.23c-4.27-5.7-11.86-8.83-19-9.36-4-.3-8.19-.38-11,.23,2.12-4.35,2.58-8.58,1-12.67C88.77,0,82.15-1,73,1,47.35,6.11,23.11,17.08,0,32.76c0,0,.3.43.89,1.16C4,37.87,14.94,50.65,28.61,53.06s28.76,6.69,42,26c0,0-.15-13.74,9.52-13.74,5.6-.59,16.21,4.22,25.88,2.58,6.68-2.86,3.41-10.07,10.09-15.8,6.29-3.54,12.38-3.22,18.25,1.64C133.56,51.37,132.69,48.81,131.68,46.19Zm-72.21-3c-1.75-.25-3-1.69-4.18-3l-8-9.51C45.9,28.88,44.4,27.31,43,25.68c-.21-.22-.4-.45-.6-.68-.55-.63-1.09-1.29-1.61-2a2.7,2.7,0,0,1-.82-2.19c.19-.83,1.09-1.27,1.89-1.58a215.08,215.08,0,0,1,23.81-7.94c3.16-.85,6.71-1.57,9.55,0C77.71,12.79,79,15.84,79,18.74a13.85,13.85,0,0,1-.86,4.63c-.18.51-.37,1-.59,1.51-.31.73-.67,1.44-1,2.14A43.07,43.07,0,0,1,64.21,41.36C62.82,42.39,61.19,43.4,59.47,43.15Zm44.72-5.29a8,8,0,0,1-1.47,3.48,4.32,4.32,0,0,1-.44.52l-.27.27a13.29,13.29,0,0,1-4.24,2.34l-21.9,8.74a17.15,17.15,0,0,1-5.25,1.47,7.22,7.22,0,0,1-4.09-1.08,4.83,4.83,0,0,1-.72-.54,3.63,3.63,0,0,1-1.24-4.16,9.8,9.8,0,0,1,2.74-3.6q7-6.66,14-13.32c3-2.89,6.32-5.9,10.45-6.64a10.74,10.74,0,0,1,12.43,12.52Z"/><path class="cls-1" d="M102.72,41.34a4.32,4.32,0,0,1-.44.52l-.27.27-.07-.27a10.17,10.17,0,0,0-4.68-6.32,12.89,12.89,0,0,0-11.71-.25C81.84,37,78.9,40.2,76.29,43L66.53,53.6a4.83,4.83,0,0,1-.72-.54l0,0q4.92-5.31,9.82-10.63c2.65-2.88,5.66-6.13,9.52-7.91a13.76,13.76,0,0,1,12.53.28A11.07,11.07,0,0,1,102.72,41.34Z"/><path class="cls-1" d="M78.16,23.37c-.18.51-.37,1-.59,1.51l0-.25a10,10,0,0,0-1.25-3.42,8.62,8.62,0,0,0-4.8-3.79c-2.72-.84-5.73-.28-8.57.44a86.53,86.53,0,0,0-20,7.82c-.21-.22-.4-.45-.6-.68l.08-.05A87.16,87.16,0,0,1,62.69,17c3-.76,6.12-1.34,9-.44A9.57,9.57,0,0,1,77,20.74,11.08,11.08,0,0,1,78.16,23.37Z"/></g></g></svg>