<svg xmlns="http://www.w3.org/2000/svg" viewBox="0 0 111.86 111.86"><defs><style>.cls-1{fill:#a3a3a3;}</style></defs><title>folija kartica</title><g id="Layer_2" data-name="Layer 2"><g id="Layer_1-2" data-name="Layer 1"><path class="cls-1" d="M83.66,108.66l4.78-17.58L97.78,56.7l.38-1.38,9.24-34,4.28-15.77,0-.13a4.35,4.35,0,0,0-1.07-4.12l-.06-.06a4.3,4.3,0,0,0-2-1.08,4.55,4.55,0,0,0-2.17,0l-.13,0L90.57,4.46l-34,9.25-1.39.37L20.78,23.42,3.2,28.2a4.27,4.27,0,0,0-1.93,1.12,4.35,4.35,0,0,0,0,6.15l.2.19L25.37,58a.44.44,0,0,1,.11.09,1.62,1.62,0,0,1,.37,1.72v0L15.91,90.34v0A4.37,4.37,0,0,0,16.8,95h0l.06.06h0a4.35,4.35,0,0,0,4.62.91h0L52,86H52a1.63,1.63,0,0,1,1.72.38.28.28,0,0,1,.09.1l22.36,23.89.2.2a4.34,4.34,0,0,0,7.27-1.92Zm4.12-37,3-.71a.31.31,0,0,1,.37.41l-1,2.89a.34.34,0,0,1-.22.2l-3,.72a.33.33,0,0,1-.38-.43l1-2.88A.31.31,0,0,1,87.78,71.65ZM97.42,36l2.19,2.15a.31.31,0,0,1,.09.29l-.59,3a.31.31,0,0,1-.53.16l-2.2-2.15a.31.31,0,0,1-.09-.28l.59-3A.32.32,0,0,1,97.42,36Zm8-33.54,2.95.88a.26.26,0,0,1,.1,0l0,.11.88,2.94a.32.32,0,0,1-.4.39L106,6a.31.31,0,0,1-.1,0,.31.31,0,0,1,0-.1L105,2.88A.32.32,0,0,1,105.4,2.49Zm-35,10.26,3-.59a.28.28,0,0,1,.28.09l2.15,2.2a.31.31,0,0,1-.16.53l-3,.59a.34.34,0,0,1-.29-.09l-2.14-2.2A.31.31,0,0,1,70.38,12.75Zm-32.75,9,2.88-1a.32.32,0,0,1,.42.37l-.72,3a.28.28,0,0,1-.2.22l-2.89,1a.31.31,0,0,1-.41-.36l.72-3A.31.31,0,0,1,37.63,21.76ZM3.75,34.94,2.89,32a.3.3,0,0,1,0-.29l2-2.35a.33.33,0,0,1,.55.12l.86,3a.3.3,0,0,1-.06.29l-2,2.34A.32.32,0,0,1,3.75,34.94ZM30,60.08l-2-2.29a.33.33,0,0,1-.06-.3l.79-3a.31.31,0,0,1,.54-.13l2,2.29a.36.36,0,0,1,.07.3l-.8,3A.32.32,0,0,1,30,60.08ZM22.24,93.6l-2.94-.89a.18.18,0,0,1-.15-.15l-.88-2.93a.32.32,0,0,1,.39-.4l2.95.88a.28.28,0,0,1,.09,0,.44.44,0,0,1,.06.1l.88,2.94A.33.33,0,0,1,22.24,93.6Zm35.1-10.46-3,.79a.33.33,0,0,1-.3-.06l-2.29-2a.32.32,0,0,1,.13-.55l3-.79a.33.33,0,0,1,.3.06l2.29,2A.32.32,0,0,1,57.34,83.14Zm17.81,18.3a85.78,85.78,0,0,1-8.33-10c-3.91-5.54-6.61-11.26-8.38-13.75v0c-.16-.21-.31-.41-.45-.57a1,1,0,0,0-.17-.18A4.55,4.55,0,0,0,52,76.38s0,0,0,0A111.26,111.26,0,0,1,27.21,88.75a3.19,3.19,0,0,1-4.09-4.1A110.81,110.81,0,0,1,35.47,59.89h0A4.56,4.56,0,0,0,35,54.05a1.49,1.49,0,0,0-.18-.17c-.17-.14-.35-.29-.57-.44l0,0C31.7,51.65,26,49,20.44,45.05a86,86,0,0,1-10-8.34,2.85,2.85,0,0,1,0-4,2.66,2.66,0,0,1,.87-.6c5.28-2.73,10.24-3.92,22-4.06A23.56,23.56,0,0,0,48.14,24c6.24-3.92,12.32-5.85,19.1-5.47h.08a23.56,23.56,0,0,0,15.3-4.29,30.69,30.69,0,0,1,9.85-4.72l9.84-2.85h0l.06,0a2.25,2.25,0,0,1,1.47,0,2.29,2.29,0,0,1,.84.51,2.46,2.46,0,0,1,.52.84,2.31,2.31,0,0,1,0,1.47l0,.06v0l-2.85,9.84a30.39,30.39,0,0,1-4.72,9.85,23.58,23.58,0,0,0-4.29,15.3s0,.06,0,.08c.38,6.78-1.57,12.86-5.48,19.11a23.52,23.52,0,0,0-4.05,14.8c-.14,11.8-1.33,16.76-4.06,22a2.87,2.87,0,0,1-4.64.87Zm5,7.48a.31.31,0,0,1-.28.06l-2.95-.86a.32.32,0,0,1-.12-.55l2.33-2a.37.37,0,0,1,.3-.07l3,.88a.32.32,0,0,1,.12.54Z"/></g></g></svg>