<svg xmlns="http://www.w3.org/2000/svg" viewBox="0 0 97.79 127.8"><defs><style>.cls-1{fill:#a3a3a3;}</style></defs><title>rukavica kartica </title><g id="Layer_2" data-name="Layer 2"><g id="Layer_1-2" data-name="Layer 1"><path class="cls-1" d="M39.61,52.8c-.31,0-.59-.06-.88-.09l-.48-.08c-.26-.05-.52-.09-.76-.15a1.4,1.4,0,0,1-.24-.06l-.38-.1a.71.71,0,0,1-.16,0l-.44-.14a8.77,8.77,0,0,1-1.12-.48,4.92,4.92,0,0,1-.71-.42A6.65,6.65,0,0,1,33,50h0c-2.85-3.34-2-8.88-2.32-13.1-.53-6.14-2.11-11.74-6.14-11.74s-7.71,5.08-7.71,5.08C19.1,40,18,42.81,14.72,55.6c-2.3,8.84-2.09,18.86-1.75,24.21a28.69,28.69,0,0,0,13.38-2.5c.49-.24,1-.49,1.43-.76A23,23,0,0,0,38,63.15a3.1,3.1,0,0,0,.13-.4,30.88,30.88,0,0,0,.76-3c.06-.29.12-.55.16-.82s.08-.45.12-.66.08-.54.11-.8.09-.67.13-1,0-.49.07-.72,0-.31,0-.44,0-.45,0-.65C39.63,53.49,39.61,52.8,39.61,52.8Zm-8,19.36c-4.16,4.33-10,6.52-17.48,6.52h0c-.29-5.4-.35-14.67,1.77-22.79l.61-2.31c2.79-10.68,3.68-14,1.63-23.13,1.17-1.46,3.9-4.2,6.47-4.2,3.38,0,4.59,5.82,5,10.7.09,1,.1,2.12.11,3.3.06,5.22.13,12.32,8.83,13.56C38.38,56.79,37.61,65.88,31.57,72.16Z"/><path class="cls-1" d="M97.78,20.55c.18,1.58-8.4,9.28-11.39,13.67A94.94,94.94,0,0,1,68,53c-7.18,5.26-7.88,10.7-7,16.65S64.84,85.39,66.41,90c0,0-7.71,11.92-15.24,14a11.62,11.62,0,0,1-7.13-.33l-6.89,8.56s3.51,1.93,10.86,2.46c0,0-5.59,5.44-8.4,8.76s-12.27,4.38-12.27,4.38S5.08,109.05,0,99.41c0,0,10.86-11.74,13.32-15.76,0,0-.19-1.45-.35-3.84a28.69,28.69,0,0,0,13.38-2.5c.49-.24,1-.49,1.43-.76A23,23,0,0,0,38,63.15a3.1,3.1,0,0,0,.13-.4,30.88,30.88,0,0,0,.76-3c.06-.29.12-.55.16-.82s.08-.45.12-.66.08-.54.11-.8.09-.67.13-1,0-.49.07-.72,0-.31,0-.44,0-.45,0-.65c.06-1.18,0-1.87,0-1.87-.31,0-.59-.06-.88-.09l-.48-.08c-.26-.05-.52-.09-.76-.15a1.4,1.4,0,0,1-.24-.06l-.38-.1a.71.71,0,0,1-.16,0l-.44-.14a8.77,8.77,0,0,1-1.12-.48c-.25-.13-.49-.28-.71-.42A6.65,6.65,0,0,1,33,50h0s11.87-7.31,15-15.9,6.28-13.34,8.76-19.46C62.69,0,62.08-2.49,72,2.06c0,0,3.94.71-2.46,13.06C63.7,26.46,65.36,25.28,62.39,33s-3.86,11.22-.71,10,6-7,12.44-12.61S87.45,15.47,88.67,13,97.61,19,97.78,20.55Z"/></g></g></svg>