<svg xmlns="http://www.w3.org/2000/svg" viewBox="0 0 351.21 83.77"><defs><style>.cls-1{fill:#d9af62;}</style></defs><title>barracuda zlatni logo</title><g id="Layer_2" data-name="Layer 2"><g id="Layer_1-2" data-name="Layer 1"><path class="cls-1" d="M34.53,42.09a10.65,10.65,0,0,0-6.21-.94s9-3.3,8-9S15.25,24.4,0,26.56c0,0-.1,9.79,2.91,14.21s6,4.7,5.74,10.91c0,0,5.55-1.22,9.13,1.79A11.42,11.42,0,0,0,25.68,56s3.48-.75,9.6,8C35.28,64,40.36,44.72,34.53,42.09ZM14.2,30.23c8.09.19,11.48,1.22,12.14,1.51s3.58,3.1,0,6.68-13.27,6.44-13.27,6.44C14.67,41.51,14.2,30.23,14.2,30.23Zm10,21.27c-2.64-.29-8.28-1.7-11.11-1.41s0-3.11,0-3.11,6.87-2,9-3,7.71-.19,7.81,3S26.81,51.78,24.18,51.5Z"/><path class="cls-1" d="M70.85,34.65c-.28-4.14-4.52-13.17-6-15.24a4.28,4.28,0,0,0-3.39-2C46.76,24.49,37.82,65.61,37.82,65.61c3.2-1.32,4.71-7,8.28-13.27s19.67-3.67,19.67-3.67c2.07,17.22,13.92,16.09,13.92,16.09S79,57.14,77.06,54.13,71.13,38.79,70.85,34.65ZM51.09,43.12s4.51-16.28,7.67-20c0,0,2.87,16.47,4.94,18.44C63.7,41.52,54.66,40.77,51.09,43.12Z"/><path class="cls-1" d="M109.14,16.4c-7.8-4.42-32.93-.75-32.93-.75s6.12,10.35,6,50l5.56,1.51S90.7,23.93,89.67,18c0,0,16.56-3.48,16.75,1.5s-6.5,11.58-15.91,13c0,0,11.67,33.12,14.59,36.23h12.33s-13.37-24.37-14.31-32.37C103.12,36.35,117,20.82,109.14,16.4Z"/><path class="cls-1" d="M152.43,17.81c-4.05-6.49-23.71-3.76-28.79-2.63a51.3,51.3,0,0,1-11.3.84,66.48,66.48,0,0,0,3.39,13.18c2.35,5.83,4,39.52,4,39.52l8.75-.38-3.57-50.91s9.22-.75,14,.66,6.49,6.68,1.5,11.58-13.64,2.91-13.64,2.91l17.13,31.9A16.41,16.41,0,0,1,156,68.34c-1.78-15.9-15.71-32.56-15.71-32.56C149.42,32.21,156.48,24.3,152.43,17.81Z"/><path class="cls-1" d="M218.39,64.15c-6.63-2.82-5.79-37-5.65-42.76S233.92,19,233.92,19l-1.27-4.8s-12.42-1.27-22.73,1.13-6.07,34.41-6.07,34.41,1.7,18.66,8.78,20.07,23.69-1.7,23.69-1.7V61.47S225,67,218.39,64.15Z"/><path class="cls-1" d="M268.92,19.83l-8.19-2.4s-.28,30.07,2.12,36.14-5.5,9.17-13.41,8.75S239.42,6,253,0c0,0-15.95,4.31-16.65,16.3s2.11,45,2.11,45,1.27,9.17,13.69,7.2S273.3,64.43,270.47,54,268.92,19.83,268.92,19.83Z"/><path class="cls-1" d="M309.29,50.32c-1.13-6.07-.14-16.65-8.05-19S279.65,25.62,274,20.82c0,0-2.4,26.25,0,31.05s1.84,11.29,1.84,11.29,7.62,1,13.4-.7S310.42,56.39,309.29,50.32Zm-10.17.14C297.71,57,283,59.64,283,59.64c2.4-8.19-2.11-31.06-2.11-31.06C301.67,32.4,300.54,44,299.12,50.46Z"/><path class="cls-1" d="M351.21,57c-4.94-2-13.41-18.49-15.81-23.14S330,29.29,330,29.29s-8.61.14-10.17,0-3.67,3.11-2.68,8.19-7.06,20.89-7.06,20.89h4.8c0-1.13,2.12-4.52,4.24-5.51s15.66-3.13,15.66-3.13l5.93,6C343.87,54.84,351.21,57,351.21,57Zm-31.9-7.22c4.37-6,4.66-16.35,4.66-16.35,5,3.84,8.46,13.55,8.46,13.55C327.78,46.23,319.31,49.73,319.31,49.73Z"/><path class="cls-1" d="M197.5,46.09c-1.55-22.73-14-35.71-14-35.71-3.81.7-9.18-2.83-9.18-2.83C159,13,157.6,68.72,157.6,68.72l4.05-3.11c-1.41-3.76,3.53-24.09,3.53-24.09,7.06-5.83,22,2.45,22,2.45a67.59,67.59,0,0,0,7.1,22.58c6.22,12.14,22.45,17.22,22.45,17.22S199.05,68.81,197.5,46.09Zm-31-13.6c1-6.31,7.81-16.09,7.81-16.09,6.78,3.39,9.32,16.09,9.32,16.09C180.47,30.42,166.54,32.49,166.54,32.49Z"/></g></g></svg>