<svg xmlns="http://www.w3.org/2000/svg" viewBox="0 0 870.55 472.94"><defs><style>.cls-1{fill:#177d21;}.cls-2{fill:#2ac13c;}.cls-3{fill:#115c17;}.cls-4{fill:#fff;}.cls-5{fill:#212121;}.cls-6{fill:#1e701e;}</style></defs><title>Asset 3</title><g id="Layer_2" data-name="Layer 2"><g id="Layer_1-2" data-name="Layer 1"><polygon class="cls-1" points="229.49 0 0 318.73 614.48 472.94 870.55 128.35 229.49 0"/><polygon class="cls-2" points="9.91 144.63 815.6 46.44 787.78 318.73 68.39 410.81 9.91 144.63"/><polygon class="cls-3" points="808.5 115.93 833.9 121.02 797.13 227.15 808.5 115.93"/><polygon class="cls-3" points="722.9 327.03 679.71 385.16 266.09 385.51 722.9 327.03"/><polygon class="cls-4" points="32.45 165.42 6.83 287.57 833.9 291.74 779.45 132.97 32.45 165.42"/><path class="cls-5" d="M75.73,189.24v20.54H86.14v2.57h-13V189.24Z"/><path class="cls-5" d="M100.48,205.67H88.68q0,.3.06.48A4.62,4.62,0,0,0,90,208.59a4.7,4.7,0,0,0,3.44,1.19,6.33,6.33,0,0,0,2.61-.51,4,4,0,0,0,1.72-1.45l2.31,1.13a6.28,6.28,0,0,1-2.67,2.5,8.56,8.56,0,0,1-4,.9,7.06,7.06,0,0,1-5.33-2.07,7.83,7.83,0,0,1-2-5.55v-.12A8,8,0,0,1,88,199a6.82,6.82,0,0,1,5.25-2.1A7,7,0,0,1,98,198.47a7.15,7.15,0,0,1,2.33,4.46,13.16,13.16,0,0,1,.13,1.53Zm-2.7-2.4a2.05,2.05,0,0,0,0-.37l0-.11c-.53-2.24-2-3.36-4.45-3.36A4.51,4.51,0,0,0,90,200.54a4.4,4.4,0,0,0-1.22,2.25,4.79,4.79,0,0,0-.08.48Z"/><path class="cls-5" d="M102.63,199.75l-2.36-.27v-2.56l2.36.28v-5.5h2.56v5.5l2.36-.28v2.56l-2.36.27v7.89c0,1.43.62,2.14,1.86,2.14h.48v2.57h-.48a4.18,4.18,0,0,1-3.21-1.3,4.73,4.73,0,0,1-1.23-3.41v-.85l0-.38Z"/><path class="cls-5" d="M111.35,189.32v3.74l-2-.57v-3.17Z"/><path class="cls-5" d="M125,207.76a4,4,0,0,1-1.33,3.08,6.46,6.46,0,0,1-4.62,1.51,6.85,6.85,0,0,1-4.32-1.23,4.1,4.1,0,0,1-1.58-2.72l2.57-.21q.39,1.59,3.33,1.59c2.25,0,3.38-.67,3.38-2s-1.13-2-3.38-2a6.21,6.21,0,0,1-4.42-1.45,4.13,4.13,0,0,1,0-6,6.16,6.16,0,0,1,4.42-1.45,6.53,6.53,0,0,1,4.1,1.17,3.93,3.93,0,0,1,1.53,2.57l-2.57.2c-.28-.91-1.3-1.37-3.06-1.37a4,4,0,0,0-2.59.68,1.66,1.66,0,0,0-.43.59,1.63,1.63,0,0,0-.11.59,1.58,1.58,0,0,0,.11.58,1.65,1.65,0,0,0,.43.61,4,4,0,0,0,2.59.66,6.51,6.51,0,0,1,4.62,1.51A4.09,4.09,0,0,1,125,207.76Z"/><path class="cls-5" d="M145.89,207.76a4.05,4.05,0,0,1-1.34,3.08,6.44,6.44,0,0,1-4.61,1.51,6.85,6.85,0,0,1-4.32-1.23A4.1,4.1,0,0,1,134,208.4l2.57-.21q.39,1.59,3.33,1.59c2.25,0,3.38-.67,3.38-2s-1.13-2-3.38-2a6.21,6.21,0,0,1-4.42-1.45,4.13,4.13,0,0,1,0-6,6.16,6.16,0,0,1,4.42-1.45A6.53,6.53,0,0,1,144,198a4,4,0,0,1,1.53,2.57l-2.58.2c-.27-.91-1.29-1.37-3.05-1.37a4,4,0,0,0-2.59.68,1.55,1.55,0,0,0-.43.59,1.44,1.44,0,0,0-.11.59,1.4,1.4,0,0,0,.11.58,1.54,1.54,0,0,0,.43.61,4,4,0,0,0,2.59.66,6.48,6.48,0,0,1,4.61,1.51A4.1,4.1,0,0,1,145.89,207.76Z"/><path class="cls-5" d="M149.08,194a1.47,1.47,0,0,1-1.44-1.46,1.4,1.4,0,0,1,.43-1,1.45,1.45,0,0,1,2,0,1.41,1.41,0,0,1,.44,1,1.49,1.49,0,0,1-1.47,1.46Zm-1.27,2.85h2.56v15.49h-2.56Z"/><path class="cls-5" d="M156.1,212.35h-2.57V196.87h2.57v1.44a4.74,4.74,0,0,1,1-.78,7,7,0,0,1,6,0,6,6,0,0,1,2.48,2.41,4.9,4.9,0,0,1,2.15-2.41,7,7,0,0,1,5.93,0,5.92,5.92,0,0,1,2.65,2.72,9.32,9.32,0,0,1,1,4.36v7.74h-2.57v-7.74a6.23,6.23,0,0,0-1-3.85,4,4,0,0,0-5.85-.09,5.71,5.71,0,0,0-1.12,3.55v8.13h-2.56v-7.74a6.17,6.17,0,0,0-1.05-3.85,4,4,0,0,0-5.85-.09,5.81,5.81,0,0,0-1.11,3.55Z"/><path class="cls-5" d="M187.77,212.23a10.05,10.05,0,0,1-1.56.12,9.74,9.74,0,0,1-1.55-.12l-.16,0a5.08,5.08,0,0,1-2.94-1.73V220H179v-23.1h2.57v1.89a5.21,5.21,0,0,1,2.91-1.72l.16,0a9,9,0,0,1,1.58-.14,9.22,9.22,0,0,1,1.59.14l.16,0a6.35,6.35,0,0,1,4,2.54,9.41,9.41,0,0,1,0,10.07,6.36,6.36,0,0,1-4.05,2.54Zm-1.56-2.45a4.4,4.4,0,0,0,3.45-1.33,6.81,6.81,0,0,0,0-7.69,5.13,5.13,0,0,0-6.89,0,5.52,5.52,0,0,0-1.21,3.85h0a5.5,5.5,0,0,0,1.21,3.83A4.36,4.36,0,0,0,186.21,209.78Z"/><path class="cls-5" d="M197.75,189.26v23.09h-2.58V189.26Z"/><path class="cls-5" d="M202.48,194a1.47,1.47,0,0,1-1.44-1.46,1.4,1.4,0,0,1,.43-1,1.45,1.45,0,0,1,2,0,1.41,1.41,0,0,1,.44,1,1.49,1.49,0,0,1-1.47,1.46Zm-1.27,2.85h2.56v15.49h-2.56Z"/><path class="cls-5" d="M208,212.35V199.43H205.7v-2.57H208a8,8,0,0,1,1.9-5.42,6.65,6.65,0,0,1,4.93-2.18v2.57a4.15,4.15,0,0,0-3.13,1.41,5.61,5.61,0,0,0-1.13,3.62h2.08v2.57h-2.08v12.92Z"/><path class="cls-5" d="M226.73,213.51a6.63,6.63,0,0,1-7.08,7.11q-4.32,0-6.13-3.19l2.32-1.14a4.15,4.15,0,0,0,3.81,1.75,4.07,4.07,0,0,0,4.51-4.53v-2.59a4.69,4.69,0,0,1-1,.77,7,7,0,0,1-5.94,0,6,6,0,0,1-2.66-2.71,9.61,9.61,0,0,1-.93-4.37v-7.78h2.56v7.78a6.16,6.16,0,0,0,1,3.84,4,4,0,0,0,5.85.11,5.69,5.69,0,0,0,1.11-3.55v-8.18h2.57Z"/><path class="cls-5" d="M236.26,200.7a1.4,1.4,0,0,1-.43-1,1.41,1.41,0,0,1,.43-1,1.42,1.42,0,0,1,2,0,1.42,1.42,0,0,1,.44,1,1.47,1.47,0,0,1-1.47,1.45A1.38,1.38,0,0,1,236.26,200.7Zm0,7.36a1.34,1.34,0,0,1-.43-1,1.46,1.46,0,0,1,2.91,0,1.35,1.35,0,0,1-.44,1,1.4,1.4,0,0,1-2,0Z"/><path class="cls-5" d="M255.41,189.19a7.56,7.56,0,0,1,5.31,1.82,6.92,6.92,0,0,1,0,9.71,7.55,7.55,0,0,1-5.31,1.81h-4.32v9.82h-3.26V189.19Zm0,10.08a5,5,0,0,0,2.7-.64,3.52,3.52,0,0,0,0-5.53,5,5,0,0,0-2.7-.65h-4.32v6.82Z"/><path class="cls-5" d="M273.94,189.19a8.56,8.56,0,0,1,6.95,3.1c1.69,2.08,2.54,4.91,2.54,8.47s-.85,6.41-2.54,8.48a9.29,9.29,0,0,1-13.87,0q-2.56-3.11-2.56-8.48c0-3.56.85-6.39,2.56-8.47A8.48,8.48,0,0,1,273.94,189.19Zm0,19.9a5.39,5.39,0,0,0,4.6-2.17,12.35,12.35,0,0,0,0-12.3,5.93,5.93,0,0,0-9.19,0,12.42,12.42,0,0,0,0,12.3A5.38,5.38,0,0,0,273.94,209.09Z"/><path class="cls-5" d="M298.5,189.19v3.26h-6.62v19.9h-3.26v-19.9H282v-3.26Z"/><path class="cls-5" d="M315.77,198.87a9.1,9.1,0,0,1,6,1.81,6.6,6.6,0,0,1,0,9.86,10.84,10.84,0,0,1-11.87.08,6,6,0,0,1-2.29-4.76l3.15-.24h.1a3,3,0,0,0,1.78,2.88,5.76,5.76,0,0,0,1.61.48,10.52,10.52,0,0,0,1.54.11,10.77,10.77,0,0,0,1.55-.11,6.09,6.09,0,0,0,1.61-.48,3.24,3.24,0,0,0,0-5.77,5.74,5.74,0,0,0-1.61-.49,10.77,10.77,0,0,0-1.55-.11,8.65,8.65,0,0,1-5.7-1.77,6.29,6.29,0,0,1,0-9.42,10.18,10.18,0,0,1,11.25-.11,5.73,5.73,0,0,1,2.27,4.39l-3.25.27a2.75,2.75,0,0,0-1.7-2.52,5.8,5.8,0,0,0-1.47-.42,8.83,8.83,0,0,0-1.4-.11,9.13,9.13,0,0,0-1.43.11,5.81,5.81,0,0,0-1.49.45,3,3,0,0,0,0,5.31,5.81,5.81,0,0,0,1.49.45A9.13,9.13,0,0,0,315.77,198.87Z"/><path class="cls-5" d="M334.3,189.19a8.54,8.54,0,0,1,6.95,3.1c1.69,2.08,2.54,4.91,2.54,8.47s-.85,6.41-2.54,8.48a9.29,9.29,0,0,1-13.87,0q-2.56-3.11-2.56-8.48c0-3.56.85-6.39,2.56-8.47A8.48,8.48,0,0,1,334.3,189.19Zm0,19.9a5.39,5.39,0,0,0,4.6-2.17,12.35,12.35,0,0,0,0-12.3,5.93,5.93,0,0,0-9.19,0,12.42,12.42,0,0,0,0,12.3A5.38,5.38,0,0,0,334.3,209.09Z"/><path class="cls-5" d="M364.67,189.21v23.14H361.4V198.77l-4.58,13v0h-3.44l-4.58-13.07v13.58h-3.26V189.21h3.36l6.2,17.69,6.21-17.69Z"/><path class="cls-5" d="M383.28,189.19v3.25H371.67v6.7h7.86v3.26h-7.86v6.69h11.61v3.26H368.41V189.19Z"/><path class="cls-5" d="M405.77,200.06a6.29,6.29,0,0,1,2.58,5.41,6.48,6.48,0,0,1-2.06,5,7.86,7.86,0,0,1-5.48,1.86h-8.44V189.19h8.29a7.14,7.14,0,0,1,5,1.72,6.61,6.61,0,0,1,.08,9.15Zm-10.14-1.47h5q3.68,0,3.67-3.07t-3.67-3.08h-5Zm5.18,10.5a5.29,5.29,0,0,0,2.86-.67,3.26,3.26,0,0,0,1.41-2.95,3.2,3.2,0,0,0-1.41-2.92,5.19,5.19,0,0,0-2.86-.69h-5.18v7.23Z"/><path class="cls-5" d="M420,189.19l8,23.16h-3.44l-2.22-6.41h-8.08L412,212.35H408.6l8-23.16H420Zm1.2,13.5-2.94-8.5-2.92,8.5Z"/><path class="cls-5" d="M433,189.19v19.9h10.1v3.26H429.75V189.19Z"/><path class="cls-5" d="M448.12,189.19v19.9h10.09v3.26H444.86V189.19Z"/><path class="cls-5" d="M466.81,198.87a9.12,9.12,0,0,1,6,1.81,6.62,6.62,0,0,1,0,9.86,10.85,10.85,0,0,1-11.88.08,6,6,0,0,1-2.28-4.76l3.15-.24h.1a3,3,0,0,0,1.78,2.88,5.76,5.76,0,0,0,1.61.48,10.42,10.42,0,0,0,1.54.11,10.62,10.62,0,0,0,1.54-.11,6,6,0,0,0,1.61-.48,3.24,3.24,0,0,0,0-5.77,5.64,5.64,0,0,0-1.61-.49,10.62,10.62,0,0,0-1.54-.11,8.68,8.68,0,0,1-5.71-1.77,6.29,6.29,0,0,1,0-9.42,10.2,10.2,0,0,1,11.26-.11,5.72,5.72,0,0,1,2.26,4.39l-3.25.27a2.75,2.75,0,0,0-1.7-2.52,5.72,5.72,0,0,0-1.46-.42,8.93,8.93,0,0,0-1.4-.11,9.13,9.13,0,0,0-1.43.11,5.77,5.77,0,0,0-1.5.45,3,3,0,0,0,0,5.31,5.77,5.77,0,0,0,1.5.45A9.13,9.13,0,0,0,466.81,198.87Z"/><path class="cls-5" d="M479.49,210.65v4l-2.75.77v-4.76Z"/><path class="cls-5" d="M504.59,189.19v23.16h-3.25V202.4h-9.5v9.95h-3.26V189.19h3.26v9.95h9.5v-9.95Z"/><path class="cls-5" d="M517.77,189.19l8,23.16H522.3l-2.22-6.41H512l-2.22,6.41h-3.44l8-23.16h3.46Zm1.2,13.5-2.94-8.5-2.92,8.5Z"/><path class="cls-5" d="M541.86,189.16l-8.17,23.19h-3.42l-8.12-23.19h3.46L532,207.4l6.45-18.24Z"/><path class="cls-5" d="M558.48,189.19v3.25H546.87v6.7h7.86v3.26h-7.86v6.69h11.61v3.26H543.61V189.19Z"/><path class="cls-5" d="M575.75,198.87a9.12,9.12,0,0,1,6,1.81,6.62,6.62,0,0,1,0,9.86,10.85,10.85,0,0,1-11.88.08,6,6,0,0,1-2.28-4.76l3.15-.24h.1a3,3,0,0,0,1.78,2.88,5.76,5.76,0,0,0,1.61.48,10.42,10.42,0,0,0,1.54.11,10.62,10.62,0,0,0,1.54-.11,6,6,0,0,0,1.61-.48,3.24,3.24,0,0,0,0-5.77,5.64,5.64,0,0,0-1.61-.49,10.62,10.62,0,0,0-1.54-.11,8.68,8.68,0,0,1-5.71-1.77,6.29,6.29,0,0,1,0-9.42,10.2,10.2,0,0,1,11.26-.11,5.72,5.72,0,0,1,2.26,4.39l-3.24.27a2.77,2.77,0,0,0-1.71-2.52,5.72,5.72,0,0,0-1.46-.42,8.93,8.93,0,0,0-1.4-.11,9.13,9.13,0,0,0-1.43.11,5.77,5.77,0,0,0-1.5.45,3,3,0,0,0,0,5.31,5.77,5.77,0,0,0,1.5.45A9.13,9.13,0,0,0,575.75,198.87Z"/><path class="cls-5" d="M594.28,189.19a8.52,8.52,0,0,1,6.94,3.1c1.7,2.08,2.54,4.91,2.54,8.47s-.84,6.41-2.54,8.48a9.29,9.29,0,0,1-13.87,0q-2.55-3.11-2.55-8.48c0-3.56.85-6.39,2.55-8.47A8.52,8.52,0,0,1,594.28,189.19Zm0,19.9a5.4,5.4,0,0,0,4.6-2.17,12.35,12.35,0,0,0,0-12.3,5.94,5.94,0,0,0-9.2,0,12.48,12.48,0,0,0,0,12.3A5.41,5.41,0,0,0,594.28,209.09Z"/><path class="cls-5" d="M624.64,189.21v23.14h-3.26V198.77l-4.58,13v0h-3.44l-4.58-13.07v13.58h-3.27V189.21h3.36l6.21,17.69,6.2-17.69Z"/><path class="cls-5" d="M643.25,189.19v3.25h-11.6v6.7h7.86v3.26h-7.86v6.69h11.6v3.26H628.38V189.19Z"/><path class="cls-5" d="M667.21,189.19v3.26h-11.6v6.69h7.86v3.26h-7.86v9.95h-3.27V189.19Z"/><path class="cls-5" d="M683.07,189.19h3.25v13.57a10.1,10.1,0,0,1-2.33,7,9.13,9.13,0,0,1-12.7,0,10.1,10.1,0,0,1-2.33-7V189.19h3.26v13.57a10.52,10.52,0,0,0,.18,2,6.44,6.44,0,0,0,.76,2.06,5.55,5.55,0,0,0,9,0,6.2,6.2,0,0,0,.75-2.06,9.74,9.74,0,0,0,.19-2Z"/><path class="cls-5" d="M693.13,189.19l8.71,16.57V189.21h3.25v23.14h-3.45l-8.72-16.57v16.56h-3.26V189.19Z"/><path class="cls-5" d="M201.73,228.69l8,23.17h-3.44L204,245.44H196l-2.22,6.42H190.3l8-23.17h3.46Zm1.2,13.51L200,233.69l-2.92,8.51Z"/><path class="cls-5" d="M214.92,228.69l8.71,16.58V228.71h3.25v23.15h-3.45l-8.72-16.57v16.55h-3.26V228.69Z"/><path class="cls-5" d="M238.44,228.69a8.84,8.84,0,0,1,7.12,3.11q2.59,3.12,2.6,8.47t-2.6,8.47a8.81,8.81,0,0,1-7.12,3.12h-7.82V228.69Zm0,19.9a5.7,5.7,0,0,0,4.77-2.17,12,12,0,0,0,0-12.29,5.68,5.68,0,0,0-4.77-2.19h-4.55v16.65Z"/><path class="cls-5" d="M273.76,228.69V232h-6.62v19.9h-3.27V232h-6.62v-3.27Z"/><path class="cls-5" d="M290.39,235.37a6.6,6.6,0,0,1-1.2,4,6.25,6.25,0,0,1-3.3,2.29l4.89,10.23h-3.6L282.47,242h-3.7v9.82h-3.26V228.69h7.59a7.55,7.55,0,0,1,5.3,1.82A6.25,6.25,0,0,1,290.39,235.37Zm-7.29,3.4a5,5,0,0,0,2.7-.64,3.54,3.54,0,0,0,0-5.53,4.86,4.86,0,0,0-2.7-.66h-4.33v6.83Z"/><path class="cls-5" d="M308.59,228.66l-7.83,11.78v11.42h-3.25V240.4l-7.83-11.74h3.93l5.54,8.33,5.53-8.33Z"/><path class="cls-5" d="M334.19,228.69V232h-6.63v19.9H324.3V232h-6.62v-3.27Z"/><path class="cls-5" d="M342.53,228.69a8.52,8.52,0,0,1,6.94,3.11q2.53,3.12,2.54,8.47t-2.54,8.47a9.27,9.27,0,0,1-13.87,0q-2.57-3.11-2.56-8.47t2.56-8.47A8.47,8.47,0,0,1,342.53,228.69Zm0,19.9a5.38,5.38,0,0,0,4.59-2.17,12.33,12.33,0,0,0,0-12.29,5.92,5.92,0,0,0-9.19,0,12.4,12.4,0,0,0,0,12.29A5.39,5.39,0,0,0,342.53,248.59Z"/><path class="cls-5" d="M364.36,228.69v19.9h10.1v3.27H361.1V228.69Z"/><path class="cls-5" d="M383.09,228.69A8.52,8.52,0,0,1,390,231.8q2.54,3.12,2.54,8.47T390,248.74a9.27,9.27,0,0,1-13.87,0q-2.57-3.11-2.56-8.47t2.56-8.47A8.47,8.47,0,0,1,383.09,228.69Zm0,19.9a5.38,5.38,0,0,0,4.59-2.17,12.33,12.33,0,0,0,0-12.29,5.92,5.92,0,0,0-9.19,0,12.46,12.46,0,0,0,0,12.29A5.39,5.39,0,0,0,383.09,248.59Z"/><path class="cls-5" d="M403.8,228.69a8.54,8.54,0,0,1,6.95,3.11q2.53,3.12,2.54,8.47t-2.54,8.47a9.28,9.28,0,0,1-13.88,0q-2.55-3.11-2.55-8.47t2.55-8.47A8.5,8.5,0,0,1,403.8,228.69Zm0,19.9a5.39,5.39,0,0,0,4.6-2.17,12.33,12.33,0,0,0,0-12.29,5.92,5.92,0,0,0-9.19,0,12.4,12.4,0,0,0,0,12.29A5.38,5.38,0,0,0,403.8,248.59Z"/><path class="cls-5" d="M418.3,228.69v10l8.84-9.95h4.36l-9.23,10.38,9.13,12.77h-4l-7.35-10.27-1.75,2v8.3H415V228.69Z"/><path class="cls-5" d="M450.31,248.59A5.67,5.67,0,0,0,456,244.8l3,1.22a9.15,9.15,0,0,1-3.41,4.31,9.31,9.31,0,0,1-5.32,1.53,8.75,8.75,0,0,1-7.1-3.12q-2.62-3.11-2.62-8.47t2.62-8.47a8.77,8.77,0,0,1,7.1-3.11,9.49,9.49,0,0,1,5.31,1.48,9.13,9.13,0,0,1,3.39,4.3l-3,1.23a6.22,6.22,0,0,0-10.45-1.57,12,12,0,0,0,0,12.29A5.67,5.67,0,0,0,450.31,248.59Z"/><path class="cls-5" d="M469.39,228.69a8.52,8.52,0,0,1,6.94,3.11c1.7,2.08,2.54,4.9,2.54,8.47s-.84,6.4-2.54,8.47a9.27,9.27,0,0,1-13.87,0c-1.7-2.07-2.56-4.89-2.56-8.47s.86-6.39,2.56-8.47A8.47,8.47,0,0,1,469.39,228.69Zm0,19.9a5.41,5.41,0,0,0,4.6-2.17,12.4,12.4,0,0,0,0-12.29,5.93,5.93,0,0,0-9.2,0,12.46,12.46,0,0,0,0,12.29A5.4,5.4,0,0,0,469.39,248.59Z"/><path class="cls-5" d="M490.1,228.69a8.54,8.54,0,0,1,6.95,3.11q2.54,3.12,2.54,8.47t-2.54,8.47a9.27,9.27,0,0,1-13.87,0q-2.56-3.11-2.56-8.47t2.56-8.47A8.46,8.46,0,0,1,490.1,228.69Zm0,19.9a5.39,5.39,0,0,0,4.6-2.17,12.33,12.33,0,0,0,0-12.29,5.92,5.92,0,0,0-9.19,0,12.4,12.4,0,0,0,0,12.29A5.38,5.38,0,0,0,490.1,248.59Z"/><path class="cls-5" d="M504.6,228.69v19.9h10.09v3.27H501.34V228.69Z"/><path class="cls-5" d="M552.09,228.66l-6.19,23.2h-3.36l-4.61-17.43-4.64,17.43h-3.36l-6.14-23.2h3.37l4.45,16.85,4.5-16.85h3.67l4.45,16.85,4.5-16.85Z"/><path class="cls-5" d="M569.85,228.69v23.17H566.6v-10h-9.5v10h-3.26V228.69h3.26v9.95h9.5v-9.95Z"/><path class="cls-5" d="M573.59,228.69h3.27v23.17h-3.27Z"/><path class="cls-5" d="M583.86,228.69v19.9H594v3.27H580.6V228.69Z"/><path class="cls-5" d="M610.57,228.69v3.25H599v6.7h7.86v3.27H599v6.68h11.6v3.27H595.7V228.69Z"/><path class="cls-5" d="M638.57,228.66l-7.83,11.78v11.42h-3.25V240.4l-7.83-11.74h3.93l5.54,8.33,5.53-8.33Z"/><path class="cls-5" d="M646,228.69A8.52,8.52,0,0,1,653,231.8q2.53,3.12,2.54,8.47T653,248.74a9.27,9.27,0,0,1-13.87,0q-2.57-3.11-2.56-8.47t2.56-8.47A8.47,8.47,0,0,1,646,228.69Zm0,19.9a5.38,5.38,0,0,0,4.59-2.17,12.33,12.33,0,0,0,0-12.29,5.92,5.92,0,0,0-9.19,0,12.46,12.46,0,0,0,0,12.29A5.39,5.39,0,0,0,646,248.59Z"/><path class="cls-5" d="M671.35,228.69h3.25v13.57a10.14,10.14,0,0,1-2.33,7,9.13,9.13,0,0,1-12.7,0,10.14,10.14,0,0,1-2.33-7V228.69h3.26v13.57a10.44,10.44,0,0,0,.18,2,6.58,6.58,0,0,0,.75,2.06,5.55,5.55,0,0,0,9,0,5.92,5.92,0,0,0,.76-2.06,9.67,9.67,0,0,0,.19-2Z"/><path class="cls-5" d="M691.5,228.69a8.82,8.82,0,0,1,7.12,3.11q2.61,3.12,2.61,8.47t-2.61,8.47a8.8,8.8,0,0,1-7.12,3.12h-7.81V228.69Zm0,19.9a5.7,5.7,0,0,0,4.78-2.17,12.08,12.08,0,0,0,0-12.29,5.69,5.69,0,0,0-4.78-2.19H687v16.65Z"/><path class="cls-5" d="M712.46,228.69a8.5,8.5,0,0,1,6.94,3.11c1.7,2.08,2.54,4.9,2.54,8.47s-.84,6.4-2.54,8.47a9.27,9.27,0,0,1-13.87,0q-2.55-3.11-2.55-8.47t2.55-8.47A8.48,8.48,0,0,1,712.46,228.69Zm0,19.9a5.41,5.41,0,0,0,4.6-2.17,12.33,12.33,0,0,0,0-12.29,5.93,5.93,0,0,0-9.2,0,12.46,12.46,0,0,0,0,12.29A5.41,5.41,0,0,0,712.46,248.59Z"/><path class="cls-5" d="M731,228.69h3.26v23.17H731Z"/><path class="cls-5" d="M751.49,228.69V232h-6.62v19.9h-3.26V232H735v-3.27Z"/><path class="cls-5" d="M755,248.27a1.81,1.81,0,0,1,1.79,1.79,1.73,1.73,0,0,1-.53,1.27,1.71,1.71,0,0,1-1.26.53,1.81,1.81,0,0,1-1.8-1.8,1.71,1.71,0,0,1,.53-1.26A1.73,1.73,0,0,1,755,248.27Zm-1.64-19.58h3.27v16.16H753.4Z"/><polyline class="cls-3" points="42.07 291 788.81 308.65 790.56 291.52"/><polygon class="cls-6" points="48.61 320.76 11.11 303.3 22.38 287.64 42.7 293.87 48.61 320.76"/><polygon class="cls-3" points="42.07 291 41.35 287.74 790.56 291.52 788.81 308.65 42.07 291"/></g></g></svg>