<svg xmlns="http://www.w3.org/2000/svg" viewBox="0 0 224.58 53.57"><defs><style>.cls-1{fill:#e2e2e2;}</style></defs><title>barracuda logo beli</title><g id="Layer_2" data-name="Layer 2"><g id="Layer_1-2" data-name="Layer 1"><path class="cls-1" d="M22.08,26.91a6.83,6.83,0,0,0-4-.6s5.77-2.11,5.11-5.78S9.75,15.6,0,17c0,0-.06,6.26,1.86,9.09s3.85,3,3.67,7c0,0,3.55-.78,5.84,1.14a7.29,7.29,0,0,0,5.05,1.63s2.23-.48,6.14,5.11C22.56,40.93,25.81,28.6,22.08,26.91Zm-13-7.58c5.18.12,7.34.78,7.76,1s2.29,2,0,4.28-8.48,4.11-8.48,4.11C9.38,26.55,9.08,19.33,9.08,19.33Zm6.38,13.6c-1.69-.18-5.3-1.08-7.1-.9s0-2,0-2,4.39-1.26,5.78-1.92,4.93-.12,5,1.92S17.14,33.11,15.46,32.93Z"/><path class="cls-1" d="M45.3,22.16c-.18-2.65-2.89-8.42-3.85-9.75a2.72,2.72,0,0,0-2.16-1.26C29.9,15.66,24.18,42,24.18,42c2.05-.84,3-4.45,5.3-8.48s12.57-2.35,12.57-2.35C43.38,42.13,51,41.41,51,41.41s-.42-4.87-1.69-6.8S45.48,24.81,45.3,22.16ZM32.67,27.57s2.89-10.41,4.9-12.81c0,0,1.84,10.53,3.16,11.79C40.73,26.55,35,26.07,32.67,27.57Z"/><path class="cls-1" d="M69.79,10.49C64.8,7.66,48.73,10,48.73,10s3.91,6.62,3.85,32l3.55,1S58,15.3,57.34,11.51c0,0,10.59-2.23,10.71,1s-4.15,7.4-10.17,8.3c0,0,7.46,21.18,9.32,23.17h7.89s-8.55-15.58-9.15-20.7C65.94,23.24,74.79,13.31,69.79,10.49Z"/><path class="cls-1" d="M97.47,11.39C94.88,7.24,82.31,9,79.06,9.7a32.21,32.21,0,0,1-7.22.55A42.34,42.34,0,0,0,74,18.67c1.51,3.73,2.53,25.27,2.53,25.27l5.6-.24L79.84,11.15s5.9-.48,9,.42,4.16,4.27,1,7.4S81,20.84,81,20.84L92,41.23a10.52,10.52,0,0,1,7.77,2.47C98.61,33.53,89.71,22.88,89.71,22.88,95.54,20.59,100.06,15.54,97.47,11.39Z"/><path class="cls-1" d="M139.65,41c-4.24-1.8-3.7-23.64-3.61-27.34s13.54-1.54,13.54-1.54l-.82-3.07a52.06,52.06,0,0,0-14.53.72c-6.59,1.54-3.88,22-3.88,22s1.08,11.93,5.62,12.83,15.14-1.08,15.14-1.08V39.31S143.89,42.83,139.65,41Z"/><path class="cls-1" d="M172,12.68l-5.24-1.53s-.18,19.22,1.36,23.1-3.52,5.87-8.58,5.6-6.41-36,2.26-39.85c0,0-10.2,2.75-10.65,10.43s1.35,28.79,1.35,28.79.82,5.86,8.76,4.6,13.54-2.62,11.73-9.3S172,12.68,172,12.68Z"/><path class="cls-1" d="M197.77,32.18c-.72-3.88-.09-10.65-5.14-12.19s-13.81-3.61-17.42-6.68c0,0-1.54,16.79,0,19.86a15.76,15.76,0,0,1,1.17,7.22,25,25,0,0,0,8.57-.45C188.65,38.86,198.49,36.06,197.77,32.18Zm-6.5.09c-.9,4.15-10.29,5.86-10.29,5.86,1.54-5.23-1.35-19.85-1.35-19.85C192.9,20.71,192.17,28.12,191.27,32.27Z"/><path class="cls-1" d="M224.58,36.42c-3.16-1.26-8.58-11.82-10.11-14.8S211,18.73,211,18.73s-5.51.09-6.5,0-2.35,2-1.72,5.23-4.51,13.36-4.51,13.36h3.07a5.93,5.93,0,0,1,2.71-3.52c1.35-.63,10-2,10-2l3.79,3.81C219.88,35.06,224.58,36.42,224.58,36.42Zm-20.4-4.62c2.8-3.81,3-10.45,3-10.45,3.18,2.45,5.41,8.66,5.41,8.66C209.59,29.56,204.18,31.8,204.18,31.8Z"/><path class="cls-1" d="M126.29,29.47c-1-14.53-8.94-22.83-8.94-22.83-2.43.45-5.86-1.81-5.86-1.81-9.81,3.49-10.71,39.11-10.71,39.11l2.59-2c-.91-2.4,2.25-15.4,2.25-15.4,4.51-3.73,14,1.57,14,1.57a43.3,43.3,0,0,0,4.54,14.44c4,7.76,14.35,11,14.35,11S127.28,44,126.29,29.47Zm-19.8-8.7c.67-4,5-10.28,5-10.28,4.33,2.16,6,10.28,6,10.28C115.4,19.45,106.49,20.77,106.49,20.77Z"/></g></g></svg>