<?xml version="1.0" encoding="UTF-8"?>
<svg id="Layer_2" data-name="Layer 2" xmlns="http://www.w3.org/2000/svg" xmlns:xlink="http://www.w3.org/1999/xlink" viewBox="0 0 224.58 53.57">
  <defs>
    <style>
      .cls-1 {
        fill: url(#linear-gradient);
      }

      .cls-1, .cls-2, .cls-3, .cls-4, .cls-5, .cls-6, .cls-7, .cls-8, .cls-9 {
        stroke-width: 0px;
      }

      .cls-2 {
        fill: url(#linear-gradient-6);
      }

      .cls-3 {
        fill: url(#linear-gradient-5);
      }

      .cls-4 {
        fill: url(#linear-gradient-2);
      }

      .cls-5 {
        fill: url(#linear-gradient-7);
      }

      .cls-6 {
        fill: url(#linear-gradient-3);
      }

      .cls-7 {
        fill: url(#linear-gradient-9);
      }

      .cls-8 {
        fill: url(#linear-gradient-8);
      }

      .cls-9 {
        fill: url(#linear-gradient-4);
      }
    </style>
    <linearGradient id="linear-gradient" x1="-36.51" y1="28.68" x2="265.27" y2="28.68" gradientUnits="userSpaceOnUse">
      <stop offset="0" stop-color="#b6917f"/>
      <stop offset="0" stop-color="#b6917f"/>
      <stop offset="1" stop-color="#4c382c"/>
    </linearGradient>
    <linearGradient id="linear-gradient-2" x1="-36.51" y1="26.55" x2="265.27" y2="26.55" xlink:href="#linear-gradient"/>
    <linearGradient id="linear-gradient-3" x1="-36.51" y1="26.52" x2="265.27" y2="26.52" xlink:href="#linear-gradient"/>
    <linearGradient id="linear-gradient-4" x1="-36.51" y1="26.33" x2="265.27" y2="26.33" xlink:href="#linear-gradient"/>
    <linearGradient id="linear-gradient-5" x1="-36.51" y1="26.86" x2="265.27" y2="26.86" xlink:href="#linear-gradient"/>
    <linearGradient id="linear-gradient-6" x1="-36.51" y1="22" x2="265.27" y2="22" xlink:href="#linear-gradient"/>
    <linearGradient id="linear-gradient-7" x1="-36.51" y1="26.94" x2="265.27" y2="26.94" xlink:href="#linear-gradient"/>
    <linearGradient id="linear-gradient-8" x1="-36.51" y1="28.02" x2="265.27" y2="28.02" xlink:href="#linear-gradient"/>
    <linearGradient id="linear-gradient-9" x1="-36.51" y1="29.2" x2="265.27" y2="29.2" xlink:href="#linear-gradient"/>
  </defs>
  <g id="Layer_1-2" data-name="Layer 1">
    <g>
      <path class="cls-1" d="m22.08,26.91s-1.56-.9-3.97-.6c0,0,5.78-2.11,5.11-5.78C22.56,16.86,9.75,15.6,0,16.98,0,16.98-.06,23.24,1.86,26.07c1.93,2.83,3.85,3.01,3.67,6.98,0,0,3.55-.78,5.84,1.14,2.29,1.93,5.05,1.62,5.05,1.62,0,0,2.23-.48,6.14,5.11,0,0,3.25-12.33-.48-14.02Zm-13-7.58c5.17.12,7.34.78,7.76.96.42.18,2.29,1.99,0,4.27-2.29,2.29-8.48,4.12-8.48,4.12,1.02-2.14.72-9.35.72-9.35Zm6.38,13.6c-1.68-.18-5.29-1.08-7.1-.9-1.81.18,0-1.99,0-1.99,0,0,4.39-1.26,5.78-1.93,1.38-.66,4.93-.12,4.99,1.93.06,2.05-1.99,3.07-3.67,2.89Z"/>
      <path class="cls-4" d="m45.3,22.16c-.18-2.65-2.89-8.42-3.85-9.75-.96-1.32-2.17-1.26-2.17-1.26-9.39,4.51-15.1,30.81-15.1,30.81,2.05-.84,3.01-4.45,5.29-8.48,2.29-4.03,12.58-2.35,12.58-2.35,1.32,11.01,8.9,10.29,8.9,10.29,0,0-.42-4.87-1.68-6.8-1.26-1.93-3.79-9.81-3.97-12.45Zm-12.64,5.42s2.89-10.41,4.9-12.82c0,0,1.84,10.53,3.16,11.79,0,0-5.78-.48-8.06,1.02Z"/>
      <path class="cls-6" d="m69.79,10.49c-4.99-2.83-21.06-.48-21.06-.48,0,0,3.91,6.62,3.85,31.95l3.55.96s1.87-27.62,1.2-31.41c0,0,10.59-2.23,10.71.96.12,3.19-4.15,7.4-10.17,8.3,0,0,7.46,21.18,9.33,23.16h7.88s-8.54-15.58-9.15-20.7c0,0,8.84-9.93,3.85-12.76Z"/>
      <path class="cls-9" d="m97.47,11.39c-2.59-4.15-15.16-2.41-18.41-1.68-3.25.72-7.22.54-7.22.54,0,0,.66,4.69,2.17,8.42,1.5,3.73,2.53,25.27,2.53,25.27l5.6-.24-2.29-32.55s5.9-.48,8.97.42c3.07.9,4.15,4.27.96,7.4-3.19,3.13-8.72,1.87-8.72,1.87l10.95,20.4c4.75-.42,7.76,2.47,7.76,2.47-1.14-10.17-10.05-20.82-10.05-20.82,5.84-2.29,10.35-7.34,7.76-11.49Z"/>
      <path class="cls-3" d="m139.65,41.02c-4.24-1.81-3.7-23.65-3.61-27.35.09-3.7,13.54-1.53,13.54-1.53l-.81-3.07s-7.94-.81-14.53.72c-6.59,1.53-3.88,22-3.88,22,0,0,1.08,11.93,5.62,12.84,4.53.9,15.14-1.08,15.14-1.08v-4.24s-7.22,3.52-11.46,1.71Z"/>
      <path class="cls-2" d="m171.96,12.68l-5.23-1.53s-.18,19.22,1.35,23.1-3.52,5.87-8.57,5.6c-5.05-.27-6.41-36.01,2.26-39.85,0,0-10.2,2.75-10.65,10.43-.45,7.67,1.35,28.79,1.35,28.79,0,0,.81,5.87,8.75,4.6,7.94-1.26,13.54-2.62,11.73-9.3-1.81-6.68-.99-21.84-.99-21.84Z"/>
      <path class="cls-5" d="m197.77,32.18c-.72-3.88-.09-10.65-5.14-12.18-5.05-1.53-13.81-3.61-17.42-6.68,0,0-1.53,16.79,0,19.86,1.53,3.07,1.17,7.22,1.17,7.22,0,0,4.87.63,8.57-.45,3.7-1.08,13.54-3.88,12.82-7.76Zm-6.5.09c-.9,4.15-10.29,5.87-10.29,5.87,1.53-5.23-1.35-19.86-1.35-19.86,13.27,2.44,12.55,9.84,11.64,13.99Z"/>
      <path class="cls-8" d="m224.58,36.42c-3.16-1.26-8.57-11.82-10.11-14.8-1.53-2.98-3.43-2.89-3.43-2.89,0,0-5.51.09-6.5,0-.99-.09-2.35,1.99-1.71,5.23.63,3.25-4.51,13.36-4.51,13.36h3.07c0-.72,1.35-2.89,2.71-3.52,1.35-.63,10.02-2,10.02-2l3.79,3.81c1.99-.54,6.68.81,6.68.81Zm-20.4-4.62c2.8-3.81,2.98-10.45,2.98-10.45,3.19,2.45,5.42,8.66,5.42,8.66-2.98-.45-8.39,1.79-8.39,1.79Z"/>
      <path class="cls-7" d="m126.29,29.47c-.99-14.53-8.94-22.83-8.94-22.83-2.44.45-5.87-1.81-5.87-1.81-9.81,3.49-10.71,39.11-10.71,39.11l2.59-1.99c-.9-2.41,2.26-15.4,2.26-15.4,4.51-3.73,14.05,1.56,14.05,1.56,0,0,.57,6.68,4.54,14.44,3.97,7.76,14.35,11.01,14.35,11.01,0,0-11.28-9.57-12.27-24.1Zm-19.8-8.69c.66-4.03,4.99-10.29,4.99-10.29,4.33,2.17,5.96,10.29,5.96,10.29-2.05-1.32-10.95,0-10.95,0Z"/>
    </g>
  </g>
</svg>