<?xml version="1.0" encoding="UTF-8"?>
<svg id="Layer_2" data-name="Layer 2" xmlns="http://www.w3.org/2000/svg" viewBox="0 0 1038.85 247.79">
  <defs>
    <style>
      .cls-1 {
        fill: #01b98d;
        stroke-width: 0px;
      }
    </style>
  </defs>
  <g id="Layer_1-2" data-name="Layer 1">
    <g>
      <path class="cls-1" d="m102.13,124.49s-7.24-4.17-18.37-2.78c0,0,26.72-9.74,23.66-26.72C104.35,78.01,45.11,72.16,0,78.57c0,0-.3,28.95,8.61,42.03,8.91,13.08,17.81,13.92,16.98,32.29,0,0,16.42-3.62,27,5.29,10.58,8.91,23.38,7.51,23.38,7.51,0,0,10.3-2.23,28.39,23.66,0,0,15.03-57.06-2.23-64.85Zm-60.12-35.07c23.94.56,33.96,3.62,35.9,4.45,1.95.83,10.58,9.18,0,19.76-10.58,10.58-39.24,19.05-39.24,19.05,4.73-9.89,3.34-43.27,3.34-43.27Zm29.5,62.9c-7.79-.83-24.49-5.01-32.84-4.17-8.35.83,0-9.18,0-9.18,0,0,20.32-5.84,26.72-8.91,6.4-3.06,22.82-.56,23.1,8.91.28,9.46-9.18,14.19-16.98,13.36Z"/>
      <path class="cls-1" d="m209.56,102.5c-.83-12.25-13.36-38.97-17.81-45.09-4.45-6.12-10.02-5.84-10.02-5.84-43.42,20.87-69.86,142.5-69.86,142.5,9.46-3.9,13.92-20.6,24.49-39.24,10.58-18.65,58.17-10.85,58.17-10.85,6.12,50.93,41.19,47.59,41.19,47.59,0,0-1.95-22.54-7.79-31.45-5.84-8.91-17.53-45.37-18.37-57.61Zm-58.45,25.05s13.36-48.15,22.68-59.28c0,0,8.49,48.71,14.61,54.55,0,0-26.72-2.23-37.3,4.73Z"/>
      <path class="cls-1" d="m322.84,48.51c-23.1-13.08-97.42-2.23-97.42-2.23,0,0,18.09,30.62,17.81,147.79l16.42,4.45s8.63-127.75,5.57-145.29c0,0,48.99-10.3,49.54,4.45.56,14.75-19.2,34.23-47.04,38.41,0,0,34.51,97.97,43.14,107.16h36.46s-39.52-72.09-42.31-95.75c0,0,40.91-45.92,17.81-59.01Z"/>
      <path class="cls-1" d="m450.88,52.68c-11.97-19.2-70.14-11.13-85.17-7.79-15.03,3.34-33.4,2.5-33.4,2.5,0,0,3.06,21.71,10.02,38.97,6.96,17.26,11.69,116.9,11.69,116.9l25.88-1.11-10.58-150.58s27.28-2.22,41.47,1.95c14.19,4.17,19.2,19.76,4.45,34.23-14.75,14.47-40.36,8.63-40.36,8.63l50.66,94.35c21.99-1.95,35.9,11.41,35.9,11.41-5.29-47.04-46.48-96.3-46.48-96.3,27-10.58,47.87-33.96,35.9-53.16Z"/>
      <path class="cls-1" d="m645.98,189.76c-19.62-8.35-17.12-109.38-16.7-126.5.42-17.12,62.62-7.1,62.62-7.1l-3.76-14.19s-36.74-3.76-67.22,3.34c-30.48,7.1-17.95,101.78-17.95,101.78,0,0,5.01,55.2,25.98,59.37,20.97,4.17,70.05-5.01,70.05-5.01v-19.62s-33.4,16.28-53.02,7.93Z"/>
      <path class="cls-1" d="m795.45,58.67l-24.21-7.1s-.84,88.93,6.26,106.88c7.1,17.95-16.28,27.14-39.66,25.88-23.38-1.25-29.64-166.6,10.44-184.33,0,0-47.18,12.74-49.26,48.23-2.09,35.49,6.26,133.18,6.26,133.18,0,0,3.76,27.14,40.5,21.29,36.74-5.84,62.62-12.11,54.27-43-8.35-30.89-4.59-101.03-4.59-101.03Z"/>
      <path class="cls-1" d="m914.85,148.84c-3.34-17.95-.42-49.26-23.8-56.36-23.38-7.1-63.88-16.7-80.58-30.89,0,0-7.1,77.65,0,91.85,7.1,14.19,5.43,33.4,5.43,33.4,0,0,22.54,2.92,39.66-2.09,17.12-5.01,62.62-17.95,59.28-35.9Zm-30.06.42c-4.17,19.2-47.59,27.14-47.59,27.14,7.1-24.21-6.26-91.85-6.26-91.85,61.37,11.27,58.03,45.51,53.86,64.71Z"/>
      <path class="cls-1" d="m1038.85,168.47c-14.61-5.84-39.66-54.69-46.76-68.47-7.1-13.78-15.86-13.37-15.86-13.37,0,0-25.47.43-30.06.01-4.59-.42-10.85,9.18-7.93,24.21,2.92,15.03-20.87,61.79-20.87,61.79h14.19c0-3.34,6.26-13.36,12.52-16.28,6.26-2.92,46.34-9.27,46.34-9.27l17.53,17.62c9.18-2.5,30.89,3.76,30.89,3.76Zm-94.35-21.38c12.94-17.62,13.78-48.34,13.78-48.34,14.74,11.35,25.05,40.08,25.05,40.08-13.78-2.09-38.83,8.26-38.83,8.26Z"/>
      <path class="cls-1" d="m584.2,136.32c-4.59-67.22-41.33-105.63-41.33-105.63-11.27,2.09-27.14-8.35-27.14-8.35-45.37,16.14-49.54,180.91-49.54,180.91l11.97-9.18c-4.17-11.13,10.44-71.25,10.44-71.25,20.87-17.26,64.99,7.24,64.99,7.24,0,0,2.64,30.89,21.01,66.8,18.37,35.9,66.38,50.93,66.38,50.93,0,0-52.19-44.25-56.78-111.47Zm-91.57-40.22c3.06-18.65,23.1-47.59,23.1-47.59,20.04,10.02,27.55,47.59,27.55,47.59-9.46-6.12-50.66,0-50.66,0Z"/>
    </g>
  </g>
</svg>