<?xml version="1.0" encoding="UTF-8"?>
<svg id="Layer_2" data-name="Layer 2" xmlns="http://www.w3.org/2000/svg" viewBox="0 0 381.41 383.06">
  <defs>
    <style>
      .cls-1 {
        fill: #a3a3a3;
        stroke-width: 0px;
      }
    </style>
  </defs>
  <g id="Layer_1-2" data-name="Layer 1">
    <path class="cls-1" d="m0,343.63l222.64,39.43,122.36-60.68,36.41-18.06-23.67-250.78L133.26,0l-27.02,21.5L5.51,101.67,0,343.63ZM97.66,39.69l3.81,230.08-92.21,57.61,5.04-221.34L97.66,39.69Zm210.92,175.31c-2.68,2.72-5.71,5.14-9.08,7.23-8.37,5.19-17.79,7.79-27.59,8.05-27.44.75-57.85-16.86-76.63-47.58-16.03-26.23-22.23-51.79-18.72-72.59,2.29-13.56,8.7-25.1,19.21-33.46,1.68-1.35,3.47-2.61,5.37-3.78,31.84-19.71,79.76-2.71,105.47,38.83,22.99,37.14,24.64,80.46,1.97,103.3ZM24.32,338.92l87.82-54.86,205.72,41.87-96.55,47.88-196.99-34.89Z"/>
  </g>
</svg>