<svg xmlns="http://www.w3.org/2000/svg" viewBox="0 0 194.72 123.51"><defs><style>.cls-1{fill:#d9af62;}</style></defs><title>mahagoni ikonica</title><g id="Layer_2" data-name="Layer 2"><g id="Layer_1-2" data-name="Layer 1"><path class="cls-1" d="M68.51,118.62l1.95,2.08-.52-2.12.1,0,1.08,2.19.25-.12-1.05-2.27.09-.06,1.68,2.18.14,0-.46-2,.53.49-.17-1.32.09,0c.2.65.45,1.29.6,2,.17.83.55,1.19,1.51.77l-.35-3c.67,1,.64,2.21,1.44,3l.26-.05.13-2.72h.12l.34,2.6.22.13c.18-.23.45-.43.51-.68.21-1,.34-2,.61-3l.43,2.87,1.34-2.39.09,0-.75,2.7.29.09.75-2.51.12,0-.16,1.91.13.06,1.39-2.48.09,0-.79,2.73h2l-.21-2.41.11,0a11.8,11.8,0,0,1,.4,1.37c.16.88.58,1.23,1.53.82l-.2-2.36.12,0,.66,1.9a9.72,9.72,0,0,0,6.19-7.69c.7-3.62,1.3-7.27,2.07-10.89a38.3,38.3,0,0,0,1-9.66,39,39,0,0,0-2.38-12.84,11.71,11.71,0,0,0-7.56-7.34c-2.61-.78-5.3-1.33-8-1.89-4-.84-7.7-2.23-10.58-5.26-.81-.85-1.38-1.93-2.2-2.76C62,59.18,60.53,57.86,59,56.52a7.11,7.11,0,0,0-4.44-1.65A42.1,42.1,0,0,1,48,54.32c-3.54-.78-7-1.88-10.5-2.93A17.73,17.73,0,0,1,34.73,50c-1.25-.65-2.48-1.36-3.75-1.95a6.59,6.59,0,0,0-3.55-.52,17.31,17.31,0,0,1-3.94-.06,9.32,9.32,0,0,0-4.26.33,9.92,9.92,0,0,1-1.9.31c-.86.1-1.72.19-2.58.26a1.9,1.9,0,0,1-.92,0c-1.15-.54-2.26-.13-3.4,0s-2.07,0-3.1,0c-.81,0-1.62,0-2.43,0a2.24,2.24,0,0,1-2.61-1.76,1.7,1.7,0,0,0-.69-.83,3,3,0,0,1-.09-5.2c.43-.25.59-.43.47-1a2.2,2.2,0,0,1,.83-2.18,1.24,1.24,0,0,0,.43-.72,2.38,2.38,0,0,1,2.63-2.54l.65,0c.57-2.21.83-2.45,2.82-2.55,0-.16,0-.32,0-.49a2,2,0,0,1,2.11-2.36c1.47,0,2.94.31,4.52.48.89-1.35,1.41-1.39,3.53-.08L21,28.45a10.08,10.08,0,0,1,.76-2.05A3.25,3.25,0,0,1,27,26.23c.32.4.52.91,1.22.75.17,0,.42.22.69.37a1.34,1.34,0,0,1,1.56-1.27,3,3,0,0,1,4.19-3.53l1.72-1.33s-.08-.17-.15-.36c-.29-.82-.13-1.42.68-1.75a7.7,7.7,0,0,1,2.43-.62c1.51-.1,3,0,4.5,0,.21-.5.31-1.34.78-1.71.81-.65,1.67-1.16,2-2.25.06-.22.42-.36.56-.47a11.16,11.16,0,0,1-.45-2.23,2.56,2.56,0,0,1,3-2.5c.18,0,.47.08.53,0,.6-.82,1.26-.55,1.92-.11.36-1.39.88-1.7,2.24-1.39,1.25-1.74,2-2,4-1.32.19-.85.43-1.68,1.41-2a2.46,2.46,0,0,1,2.38.62c.59-.91,1.35-.94,2.25-.36,0-1.05.69-1.36,1.56-1.44,0-.16,0-.3,0-.43-.08-1.73.39-2.2,2.1-2.1a8.92,8.92,0,0,1,4.16,1.54c1.33-1.29,1.8-1.25,4.47.32l1.79-.34C79.27.6,80.35-.15,81.9.06s2.34,1.22,2.62,3.07c1.51-.09,1.62,0,2.57,1.23a2.65,2.65,0,0,1,1.62-3,2.61,2.61,0,0,1,3.19,1A7.31,7.31,0,0,1,97.36.24a6,6,0,0,1,5.4,2.2c.94-1.06,2-1.66,3.38-1a2.82,2.82,0,0,1,1.56,2.87,1.83,1.83,0,0,1,2.45-1.06c.1-.42.17-.8.28-1.17A2.93,2.93,0,0,1,113.14,0,2.9,2.9,0,0,1,116,1.81a1.43,1.43,0,0,0,2.32.66,9.65,9.65,0,0,1,1.16-.7,2,2,0,0,1,2.9.46l3-1.22a3,3,0,0,1,.49-.13c2.21-.49,2.93.11,2.91,2.46a1.31,1.31,0,0,1,1.56,1.41c.93-.57,1.72-.54,2.31.35,2-1.48,3.37-.47,3.75,1.37l.86-.23A2.47,2.47,0,0,1,140,7.32c.14.19.41.42.61.41,1.39-.07,1.62.09,2,1.54.67-.48,1.34-.81,2,0,.06.09.31.08.46,0a2.36,2.36,0,0,1,2.53,1,2.84,2.84,0,0,1,.25,3c-.12.28-.31.69-.2.89.36.66.72,1.6,1.3,1.79a2.35,2.35,0,0,1,1.87,2.47c1.47,0,2.9,0,4.32,0a7.87,7.87,0,0,1,2.15.41c1.44.47,1.7,1.15,1.1,2.41l1.81,1.25c2.7-.76,4.56.66,4.12,3.5.74.07,1.49.2,1.48,1.19a2.31,2.31,0,0,0,2.19-1.11,2.83,2.83,0,0,1,3.34-1,3,3,0,0,1,2.27,2.49c.11.57,0,1.23.8,1.49.47.15.84.24,1.23-.11a2.36,2.36,0,0,1,.51-.3c1.34-.7,1.93-.54,2.7.67,1.21-.19,2.39-.4,3.58-.57a3.89,3.89,0,0,1,1,0c1.58.21,2.06.86,2.05,2.67a5.77,5.77,0,0,1,1.92.73,5.88,5.88,0,0,1,1,1.77l-.18.15a12.08,12.08,0,0,1,1.47.2,2.18,2.18,0,0,1,1.86,2.44.84.84,0,0,0,.21.56c1.2,1.1,1.33,1.45,1,3,.22.13.46.25.69.4a2.9,2.9,0,0,1-.2,5,1.23,1.23,0,0,0-.76.89c-.36,1.45-1.43,2-3.19,1.74a4.89,4.89,0,0,0-1.83,0c-1.35.36-2.62,0-3.93-.19a16.11,16.11,0,0,0-2.4.09,8.39,8.39,0,0,1-1,.06c-1-.07-1.9-.17-2.84-.27A4.66,4.66,0,0,1,176,48a10.1,10.1,0,0,0-5.58-.36,8.79,8.79,0,0,1-2.85,0,6.82,6.82,0,0,0-4,.56,18,18,0,0,0-2.55,1.31,21.68,21.68,0,0,1-7.34,2.94A54.4,54.4,0,0,0,148,54c-2.52.84-5.14.66-7.72.82a7.62,7.62,0,0,0-4.75,1.76,42.4,42.4,0,0,0-6.16,6.26,13.56,13.56,0,0,1-7.21,4.69c-2.9.82-5.89,1.31-8.81,2.08a24.24,24.24,0,0,0-4.84,1.72c-3.18,1.61-5,4.44-6,7.73A38.21,38.21,0,0,0,101,84.39a11.67,11.67,0,0,0,.13,3.77,29.94,29.94,0,0,1-.21,12.11,14.13,14.13,0,0,0,1.22,9.39,25,25,0,0,0,4.84,7.1c.33.34.69.65,1.13,1.06l.16-.91a4.92,4.92,0,0,0,.52,1.34,5.79,5.79,0,0,0,1.26.94v-1.88h.15l.37,2,.27,0,.8-3.32c0,.82,0,1.55,0,2.27a6.87,6.87,0,0,0,.25,1.16,8.3,8.3,0,0,0,.6-1,14,14,0,0,1,.62-1.45c-.08.78-.16,1.57-.24,2.34,1.21.38,1.27.36,1.59-.72a7.42,7.42,0,0,1,.52-1.43c-.08.78-.17,1.56-.27,2.43l1.93.09c-.22-.9-.4-1.67-.59-2.45l.12-.07,1.18,2.1.13,0-.1-1.68.13,0,.66,2.28.31-.09c-.22-.85-.45-1.71-.67-2.57l.06,0,1.32,2.32.13,0c0-.57-.06-1.15-.09-1.83l.34.4.11-1c.61.94,0,2.35,1.2,3.3.17-1.13.31-2,.44-3h.22v2.77l.28.06c.8-.78.78-2,1.45-2.95l-.43,3c1.18.34,1.18.34,1.52-.68a11.51,11.51,0,0,1,.62-1.56l-.08,1,.56-.75-.5,2.06.15.08,1.58-2,.11.06c-.32.7-.65,1.39-1,2.09l.27.15,1-1.9.1,0-.37,1.79,2.39-2.71c.1,1.1.2,2.17.3,3.23l.29,0,.85-2,.11,0c-.12.65-.24,1.31-.35,2,1.22.45,1.22.45,1.64-.62l.42-1a2.23,2.23,0,0,1,.16-.24c-.14.81-.26,1.51-.4,2.3l1.84.2-.53-2.29.12,0,1.18,2.43.14,0v-1.71l.16,0,.43,1.85.26,0-.31-2,.68,1.3,1.09-1.24-1.06,2.17,1.19.2c.06-.7.14-1.31.16-1.93,0-.13-.21-.28-.32-.42l.42-.33c.07.78.13,1.49.23,2.19a2.76,2.76,0,0,0,.26.65,4.33,4.33,0,0,0,.52-.53,2.5,2.5,0,0,1,.4-.6c0,.38-.09.76-.13,1.14.94.48.94.48,2-1.09,0,.77-.69,1.8.73,2H55.42l1.09-.49-.4-2.08a10.92,10.92,0,0,0,1,1.93c.14.17.78-.08,1.22-.14L58,121.08l.08,0c.26.54.52,1.07.79,1.6l.31,0c.06-.53.09-1.07.18-1.59a7,7,0,0,1,.29-1l.12,2.43,1.24-.25-.68-1.55.69.62.64-1.2L61.47,122l.23,0,.42-1.72h.12v1.58l.16,0,1.22-2.52.1,0-.53,2.41,1.82-.23-.35-2,.09,0c.13.33.27.65.39,1,.41,1,.41,1,1.69.66l-.32-1.85.1,0,.83,1.91.31,0,.36-3.08.29.37c-.08.15-.24.31-.23.46,0,.69.1,1.37.17,2.13l1.31-.14ZM97.42,69.08c3.78-3.74,7.49-7.37,11.14-11.06a3,3,0,0,0,.67-1.59,11.61,11.61,0,0,0,0-2.28c-.13-1.52-.32-3-.44-4.54A4,4,0,0,0,107.59,47c-.65-.65-1.33-1.29-1.91-2-1.28-1.56-2.61-3.09-3.73-4.76S99.18,38,97.5,37.31a.53.53,0,0,0-.33,0c-1.78.65-3.55,1.29-4.54,3.15a12.63,12.63,0,0,1-1.42,1.87c-.53.66-1.07,1.3-1.62,1.94a26.69,26.69,0,0,1-2.07,2.3A4.36,4.36,0,0,0,86,49.93c0,.73-.08,1.46-.14,2.19-.12,1.37-.35,2.75-.34,4.12a3,3,0,0,0,.77,1.88c2,2.15,4.16,4.23,6.27,6.3C94.1,66,95.71,67.46,97.42,69.08Zm8.07-.23c.51-.19.86-.3,1.19-.44a57.56,57.56,0,0,1,11-3.22,52.11,52.11,0,0,0,6.89-2,7.59,7.59,0,0,0,3.47-2.49c1.53-1.85,3.06-3.71,4.73-5.43,2.61-2.69,2.08-7.4-.52-10a10.44,10.44,0,0,1-1.3-1.44,5.24,5.24,0,0,0-3.18-1.94,17,17,0,0,0-4-.07,6,6,0,0,1-1.24,4.44,23.61,23.61,0,0,0-3.12,5.2,9.13,9.13,0,0,1-3.91,4.7,24.08,24.08,0,0,0-7.21,7.18A18.88,18.88,0,0,0,105.49,68.85Zm-16.14,0c-.35-.82-.56-1.44-.85-2a27.17,27.17,0,0,0-5.15-7.21A67,67,0,0,0,78,55.36a6.86,6.86,0,0,1-2.41-3.18,18.82,18.82,0,0,0-3.52-6,4.76,4.76,0,0,1-1.22-3.5c0-.28,0-.55,0-.8H67a.53.53,0,0,0-.25,0c-1.12.66-2.47,1-3.21,2.23a6.06,6.06,0,0,1-1,1.12c-2.69,2.57-3.21,7.37-.61,10a52.66,52.66,0,0,1,4.22,4.86,10.87,10.87,0,0,0,5.54,3.69c.89.29,1.77.58,2.68.8,3.25.8,6.53,1.51,9.77,2.39C85.82,67.44,87.45,68.17,89.35,68.86Zm-35.8-16,.09-.22a10.54,10.54,0,0,0-.88-.75c-1.15-.82-2.29-1.65-3.48-2.41a10.92,10.92,0,0,1-3.83-3.75,4.18,4.18,0,0,0-3.72-2.26c-.39,0-.79-.05-1.18-.07a4.28,4.28,0,0,1-3.87-2.57,4.63,4.63,0,0,0-.45-.82c-.66-.93-1.26-1-2.14-.32-.36.27-.71.55-1.05.85-2.37,2.12-2.42,4.76.07,6.71a18.25,18.25,0,0,0,4.42,2.42c2.59,1,5.26,1.86,7.91,2.72S50.83,52.93,53.55,52.81ZM141,52.63c.15.1.21.17.28.18.22,0,.45,0,.67.06a20.53,20.53,0,0,0,9.7-1.37c2.3-1,4.77-1.56,7.06-2.55a11.79,11.79,0,0,0,3.58-2.48,3.69,3.69,0,0,0-.06-5.39,15.15,15.15,0,0,0-1.65-1.45c-.9-.71-1.56-.58-2.18.42-.21.34-.37.7-.56,1.05A3.83,3.83,0,0,1,155,43.21a8.56,8.56,0,0,1-1.43.15,4.66,4.66,0,0,0-4.4,2.47,9.74,9.74,0,0,1-3.45,3.42c-1.32.87-2.6,1.79-3.89,2.7C141.54,52.14,141.31,52.39,141,52.63ZM119.05,39l-3.47,1c-.66.18-1.26.47-1.41,1.18a7.79,7.79,0,0,1-2.69,4.2,2.34,2.34,0,0,0-.81,2.29q.67,3.35,1.43,6.67a5.54,5.54,0,0,0,.45,1c1.25-.76,2.38-1.5,3.57-2.13a6.45,6.45,0,0,0,2.8-3c.76-1.54,1.58-3,2.41-4.55a6,6,0,0,0,1-3.44,1.73,1.73,0,0,0-.55-1C120.93,40.55,120.05,39.87,119.05,39ZM82.15,55.38a5.17,5.17,0,0,0,.37-.78c.5-2.05,1-4.11,1.46-6.16a3.45,3.45,0,0,0-1.39-3.72,6.26,6.26,0,0,1-2-3.28c-.13-.44-.44-1-.82-1.17-1.44-.53-2.93-.91-4.12-1.25-1,.83-1.76,1.56-2.62,2.17a1.36,1.36,0,0,0-.67,1.31,7.18,7.18,0,0,0,1.11,3.42c.8,1.42,1.52,2.89,2.35,4.3a7,7,0,0,0,1.63,2.21C78.92,53.52,80.54,54.39,82.15,55.38Zm55.42-4.06a20.68,20.68,0,0,0,9.31-4.83,3.56,3.56,0,0,0,.88-4.72,22.41,22.41,0,0,0-1.32-2,1,1,0,0,0-1.34-.42c-2,.72-4,1.71-6.2,1.91a6.24,6.24,0,0,0-2.07.69c-2.06,1-2.46,2.52-1.38,4.53.6,1.11,1.06,2.29,1.58,3.44C137.22,50.4,137.38,50.84,137.57,51.32ZM57,51.28c.91-2,1.84-3.84,2.65-5.78a2.34,2.34,0,0,0-1.09-3.07,17.3,17.3,0,0,0-3.19-1.24c-1.34-.43-2.74-.67-4-1.17-2.63-1-3-.92-4.36,1.6a3.72,3.72,0,0,0,.9,4.94A20.88,20.88,0,0,0,57,51.28ZM107.71,35c-3,2.76-3.11,6.14-.45,9.06a1.88,1.88,0,0,0,2.69.46,9.51,9.51,0,0,0,1.43-.89c1.34-1.05,1.4-2.14.22-3.37-.7-.73-1.43-1.44-2.1-2.2a6.1,6.1,0,0,1-.72-1.14C108.43,36.36,108.1,35.75,107.71,35Zm-20.6.1A15.31,15.31,0,0,0,86,36.48c-.43.67-.73,1.43-1.21,2.06A18.93,18.93,0,0,1,83.1,40.3c-1.16,1.21-1.11,2.35.24,3.36a9.86,9.86,0,0,0,2,1.13,1.42,1.42,0,0,0,1.09,0A5.31,5.31,0,0,0,89.19,41,5.78,5.78,0,0,0,87.11,35.14Zm5-2a3.71,3.71,0,0,0-2.19,4c.12,1.09.22,2.18.32,3.28,0,.29.07.58.12,1a5.1,5.1,0,0,0,.73-.54c1.15-1.3,2.31-2.6,3.42-3.94.12-.14,0-.59-.1-.78C93.65,35.19,92.87,34.22,92.08,33.19Zm12.09,8.24.31-.17c0-2,.63-4,.21-6.08-1.38.63-2.51,1.64-3.87.56-1,.85-1,.88-.11,1.77s1.39,1.61,2.09,2.41C103.25,40.43,103.72,40.93,104.17,41.43Zm31.66.11a9.27,9.27,0,0,0,4-2.15l-2.39-3.67-.28.06Zm-77,0c-.47-2-.92-3.86-1.36-5.74l-.28-.06C56.5,36.87,55.75,38,55,39.17a.63.63,0,0,0,.17.55A9.21,9.21,0,0,0,58.88,41.52Zm107.37,4.63c1.34.75,2.66.44,4,.42-.22-3-.35-3.24-2.45-3.68C167.28,44,166.77,45,166.25,46.15Zm-14.59-3.79,4.92-.9c-.35-.92-.69-1.8-1-2.66C153.25,39.18,152.05,40.29,151.66,42.36Zm-108.6,0a4,4,0,0,0-3.4-3.47.8.8,0,0,0-.64.27c-.33.74-.59,1.51-.9,2.31ZM27,43c-.58.23-1.17.45-1.75.71a.78.78,0,0,0-.41.43c-.15.79-.24,1.59-.37,2.57,1.24-.09,2.38-.15,3.51-.27.45-.05.6-.37.38-.8C27.86,44.73,27.4,43.85,27,43ZM98.4,33.15a1.37,1.37,0,0,1-2.15.36l-1.57,1.32c.95,1.42,2.42,1.19,3.79,1a2.41,2.41,0,0,0,1.93-1.71A1.59,1.59,0,0,1,98.4,33.15ZM112.61,36c-.28.84-.57,1.6-.78,2.39a1.85,1.85,0,0,0,1.3,2.27c.25-.75.51-1.49.75-2.23C114.44,36.73,114.44,36.73,112.61,36ZM82,36l-1.66.88,1.24,3.87C83.24,39.79,83.31,38.84,82,36Zm84.3,4.71c-.91.06-1.68.39-1.79,1.29a28.44,28.44,0,0,0,0,3.33A3.87,3.87,0,0,0,166.32,40.72ZM30.42,45.44c-.05-1.13,0-2.14-.17-3.13s-.76-1.55-1.9-1.51A3.94,3.94,0,0,0,30.42,45.44Zm145.1.6c.24,1,.27,1,1,1.11,1.17.17,2.34.35,3.52.5a1.09,1.09,0,0,0,.7-.17,11.12,11.12,0,0,0,1.4-1.08,2.05,2.05,0,0,0,.34-.64l-.14-.2C180.21,47.15,177.87,46.07,175.52,46Zm-163.2-.48-.1.22c0,.13,0,.32.09.39.6.5,1.22,1,1.85,1.46.11.08.33,0,.49,0,1.17-.16,2.34-.36,3.52-.49a1,1,0,0,0,1-1.11C16.87,46.05,14.5,47.17,12.32,45.56Zm114.34-4.79c-.4-.68-.73-1.28-1.12-1.85a.69.69,0,0,0-.55-.26c-.74.08-1.48.23-2.21.35C122.77,40.85,123.81,41.34,126.66,40.77ZM68.11,41c.83,0,1.56.05,2.27,0,1.13-.08,1.63-.74,1.51-1.92C69.2,38.44,68.92,38.56,68.11,41ZM63.85,40c.91,1.56,1.09,1.64,2.45.91a2.43,2.43,0,0,0,.77-.82,2.09,2.09,0,0,0,.38-1c0-.1-.51-.34-.78-.33a4.36,4.36,0,0,0-1.44.31A9.73,9.73,0,0,0,63.85,40Zm67.05,0a5.45,5.45,0,0,0-1.18-.78,6.11,6.11,0,0,0-1.89-.38c-.7,0-.66.49-.39.92a3,3,0,0,0,2,1.54.7.7,0,0,0,.56-.16A13.05,13.05,0,0,0,130.9,40.08Zm-50.63-.46.19-.21a16.13,16.13,0,0,0-.55-1.66,1.7,1.7,0,0,0-1.89-1,.72.72,0,0,0-.5.49,1.58,1.58,0,0,0,.93,1.81A15.86,15.86,0,0,0,80.27,39.62Zm34.09,0c.49-.1.9-.17,1.31-.28a1.84,1.84,0,0,0,1.52-1.4c.21-1-.17-1.32-1.12-1.12S114.48,37.88,114.36,39.6Zm18.07,3.94c1.14-1.29,1.14-1.29.33-2.65-.07-.12-.12-.28-.22-.35s-.52-.37-.74-.32a1,1,0,0,0-.66.57C130.76,42.07,131.06,42.68,132.43,43.54Zm-70.18,0c1.12-.67,1.82-1.42,1.35-2.66a1.19,1.19,0,0,0-.68-.66,1,1,0,0,0-.77.38,5.59,5.59,0,0,0-.74,1.22.75.75,0,0,0,0,.59A13.12,13.12,0,0,0,62.25,43.55Zm84.43-4.33c.8,1.06,1.59,2.13,2.43,3.24a1.79,1.79,0,0,0,.31-2.12A2.23,2.23,0,0,0,146.68,39.22Zm-101,3.34c.41-1.44,2.09-2,2.19-3.61a2.6,2.6,0,0,0-2.46,1.28A1.87,1.87,0,0,0,45.66,42.56Zm88.21-1.16a7.85,7.85,0,0,0,1.75-4.13c0-.1-.27-.35-.42-.36-.52,0-.71.22-.75.76A3.5,3.5,0,0,1,134,39.4C133.33,40.2,133.22,40.46,133.87,41.4Zm-73.08,0,.36,0c0-.56.23-1.45,0-1.62a1.88,1.88,0,0,1-.88-1.86c0-.85-.31-1.05-1.21-.89A8.3,8.3,0,0,0,60.79,41.35Zm101.71-.78.35-.18c.12-.92.24-1.85.37-2.91l-2.47.73-.15.31ZM34,38.2l-2.49-.7.4,3A3.14,3.14,0,0,0,34,38.2Zm18.17-1c-.58,1-.8,1.72-.22,2.44a1.79,1.79,0,0,0,2.14.52Zm88.43,3c1.09.18,1.8,0,2.27-.68s.31-1.41-.31-2.26Zm-105.24-2,2,2.06.78-2.2Zm123.9.18-.06-.2h-2.62l.76,2ZM171,45.22l-.27.22c.19.43.27,1.05.6,1.25a1.58,1.58,0,0,0,2.13-.78ZM21.12,46c.71.81,1.79,1.12,2.31.69.31-.25.34-.85.49-1.29l-.27-.18Zm62.56-7.52,1.48-1.75L82.62,36ZM112.1,36l-2.61.72,1.56,1.66ZM53.62,37.25c-.15.67-.13,1.17.52,1.32s1.3-.64,1.47-1.53Zm89.82.68c.26.53.35,1,.62,1.17s.72,0,1-.15.38-.46.57-.69a4.8,4.8,0,0,0-.87-.32A9.24,9.24,0,0,0,143.44,37.93ZM51,37.94a8.88,8.88,0,0,0-1.47,0c-.17,0-.29.36-.43.55.45.26.9.73,1.34.71C51,39.21,51.21,38.63,51,37.94Zm88.09-.9c.3,1,1.07,1.69,1.58,1.51.67-.23.61-.74.42-1.32Zm-9.93,81.59-.27-.08L127.49,121l1.4.09ZM73.07,40.26c1-.32,1.24-1.16,1.7-1.94C73.61,38.45,73.28,38.84,73.07,40.26Zm48.3.08.25-.19c-.16-1.31-.58-1.78-1.79-1.79C120.39,39.09,120.88,39.72,121.37,40.34ZM105.89,36c1.07-.32,1.12-1,1-1.88H106ZM87.81,34.06c-.08.87-.06,1.59,1,1.89l-.11-2Zm75.78,7.39c1.22-.53,1.29-1.08.27-2ZM30.86,39.59l-.49,0a4.07,4.07,0,0,0-.18,1.23c0,.21.42.38.65.56l.28-.16ZM117.38,39c.69.14,1.18,0,1.35-.68a.63.63,0,0,0-.35-.52C117.54,37.72,117.58,38.42,117.38,39ZM77.32,39c-.19-.55-.15-1.25-1-1.19-.13,0-.36.35-.32.46A1,1,0,0,0,77.32,39ZM14.89,35l-.35-.19-.78.86.87.26Zm93.17-21.51-.07-.31-1.23.09.2,1ZM118.3,26.91l-.92-.83-.31,1.31ZM73.54,9l.24.14.92-.63-.11-.3a3.71,3.71,0,0,0-1,.17C73.53,8.38,73.57,8.73,73.54,9Zm44.69,5.49-.3.2.41.91.57-.39Z"/></g></g></svg>