<svg xmlns="http://www.w3.org/2000/svg" viewBox="0 0 1184.62 517.22"><defs><style>.cls-1{fill:#fff;}.cls-2{fill:#712296;}</style></defs><title>be cool play pool</title><g id="Layer_2" data-name="Layer 2"><g id="Layer_1-2" data-name="Layer 1"><path class="cls-1" d="M359.75,178q0,28.69-13.9,47.68T307.74,249.7l-1.65.3a84,84,0,0,1-29.89,0l-1.49-.3a50.57,50.57,0,0,1-21.82-10.46v12.1H222.54V36h30.35v80.71a49.6,49.6,0,0,1,22.26-10.46l1.35-.45a90,90,0,0,1,29.29,0l1.5.45Q331.65,111,345.7,130,359.76,149.12,359.75,178Zm-68.6,43q21.53,0,31.09-14.19Q329.41,196,329.41,178t-7.17-29q-9.57-14-31.09-14.05T260.21,149q-7.33,10.77-7.32,28.85v.3q0,18.09,7.32,28.85Q269.78,221,291.15,221Z"/><path class="cls-1" d="M520.87,191.11H415.2Q421,221,453.76,221q13.31,0,23.32-4.93a31,31,0,0,0,14.2-13.9l27.2,13.3a58.91,58.91,0,0,1-25.41,26.31q-17.19,9.57-39.31,9.56-32,0-51-20T383.66,178q0-33.48,18.69-53.36t49.92-20q27.35,0,45.28,15.55,17.94,15.39,22.12,42.29a82.54,82.54,0,0,1,1.2,14.2v14.5Zm-32-28.7q-6.42-27.49-36.61-27.5t-36.62,27.5Z"/><path class="cls-1" d="M689.31,251.34q-31.24,0-49.92-20T620.71,178q0-33.48,18.68-53.36t49.92-20q21.08,0,37.07,9.57a59.74,59.74,0,0,1,24.21,27.05l-27.5,12.71q-8.82-19-33.78-19-21.37,0-31.09,14.05-7.17,10.92-7.17,29t7.17,29q9.72,14,31.09,14,25.11,0,33.93-19.28l27.5,12.56a60.8,60.8,0,0,1-24.06,27.35Q710.53,251.35,689.31,251.34Z"/><path class="cls-1" d="M833.54,104.57q31.25,0,49.92,20,18.69,19.88,18.68,53.36t-18.68,53.36q-18.68,20-49.92,20t-49.92-20Q764.95,211.43,764.94,178t18.68-53.36Q802.3,104.58,833.54,104.57Zm0,116.43q21.53,0,31.09-14Q872,196,872,178t-7.32-29q-9.57-14-31.09-14.05T802.45,149q-7.17,10.92-7.17,29t7.17,29Q812,221,833.54,221Z"/><path class="cls-1" d="M994.66,104.57q31.25,0,49.92,20,18.68,19.88,18.68,53.36t-18.68,53.36q-18.69,20-49.92,20t-49.92-20Q926.05,211.43,926.06,178t18.68-53.36Q963.42,104.58,994.66,104.57Zm0,116.43q21.52,0,31.09-14,7.32-10.92,7.32-29t-7.32-29q-9.57-14-31.09-14.05T963.57,149q-7.17,10.92-7.17,29t7.17,29Q973.14,221,994.66,221Z"/><path class="cls-1" d="M54,441l-1.35-.3a50.92,50.92,0,0,1-22.27-10.61v80.86H0V295.56H30.34v12.11a50.63,50.63,0,0,1,21.82-10.46l1.5-.3a83.4,83.4,0,0,1,29.89,0l1.64.3q24.21,5.09,38.12,23.91,13.89,19.14,13.9,47.83t-14.05,47.83q-14.05,19-38.42,23.91l-1.49.3A80.11,80.11,0,0,1,54,441ZM30.34,369.25q0,18.09,7.32,28.7,9.57,14,30.94,14,21.53,0,31.09-14.19Q106.86,387,106.86,369q0-18.24-7.17-29-9.57-14.19-31.09-14.19t-30.94,14q-7.32,10.77-7.32,28.85Z"/><path class="cls-1" d="M191.46,227V442.34H161.12V227Z"/><path class="cls-1" d="M322.24,295.71h30.34V442.34H322.24V430.23a50.6,50.6,0,0,1-21.67,10.46l-1.65.3A83.4,83.4,0,0,1,269,441l-1.64-.3q-24.21-5.08-38-24.06-14-19-14-47.68t14-48q14.06-19,38.41-23.76l1.5-.45a90,90,0,0,1,29.29,0l1.5.45a49.58,49.58,0,0,1,22.12,10.46Zm0,73.09q0-18.07-7.33-28.85-9.56-14-30.93-14-21.53,0-31.09,14-7.17,10.92-7.18,29t7.18,28.85Q262.45,412,284,412q21.36,0,30.93-14,7.32-10.77,7.33-28.85Z"/><path class="cls-1" d="M473.64,295.71H504v154q0,30.79-18.38,49.17t-49,18.39q-20.94,0-36.47-8.67a57.37,57.37,0,0,1-23.62-25.26L403.69,470a28.22,28.22,0,0,0,14.8,13.76,48.13,48.13,0,0,0,18.09,3.13q37.07,0,37.06-37.21V433.52a34.17,34.17,0,0,1-4,2.39,65.93,65.93,0,0,1-56.8,0q-16.29-8.07-25.26-25.41Q378.43,393,378.44,369V295.71h30.34V369q0,18.24,6.12,29,8.09,14,26.31,14,17.94,0,26-13.6,6.29-10.61,6.43-28.39Z"/><path class="cls-1" d="M657.78,441l-1.35-.3a50.92,50.92,0,0,1-22.27-10.61v80.86H603.82V295.56h30.34v12.11A50.63,50.63,0,0,1,656,297.21l1.5-.3a83.4,83.4,0,0,1,29.89,0l1.64.3q24.21,5.09,38.12,23.91Q741,340.26,741,369t-14,47.83q-14.06,19-38.41,23.91l-1.5.3a80.11,80.11,0,0,1-29.29,0Zm-23.62-71.74q0,18.09,7.33,28.7,9.56,14,30.94,14t31.08-14.19Q710.68,387,710.68,369q0-18.24-7.17-29-9.57-14.19-31.08-14.19t-30.94,14q-7.34,10.77-7.33,28.85Z"/><path class="cls-1" d="M833.54,295.56q31.25,0,49.92,20,18.69,19.88,18.69,53.36t-18.69,53.36q-18.68,20-49.92,20t-49.92-20Q764.95,402.44,764.94,369t18.68-53.36Q802.31,295.57,833.54,295.56Zm0,116.43q21.53,0,31.09-14Q872,387,872,369t-7.32-29q-9.57-14-31.09-14t-31.08,14q-7.19,10.92-7.18,29t7.18,29Q812,412,833.54,412Z"/><path class="cls-1" d="M994.66,295.56q31.25,0,49.92,20,18.69,19.88,18.68,53.36t-18.68,53.36q-18.67,20-49.92,20t-49.92-20Q926.07,402.44,926.06,369t18.68-53.36Q963.42,295.57,994.66,295.56Zm0,116.43q21.52,0,31.09-14,7.32-10.92,7.32-29t-7.32-29q-9.57-14-31.09-14t-31.09,14q-7.17,10.92-7.17,29t7.17,29Q973.14,412,994.66,412Z"/><path class="cls-1" d="M1087.17,0V11.53h30.35V0Zm0,15.34v234.1h30.35V15.34Zm0,237.91V442.34h30.35V253.25Z"/><circle class="cls-2" cx="1159.78" cy="417.49" r="24.85"/></g></g></svg>