<svg xmlns="http://www.w3.org/2000/svg" viewBox="0 0 163.38 133.29"><defs><style>.cls-1{fill:#0c0c0c;}.cls-2{fill:#fff;}</style></defs><title>b logo</title><g id="Layer_2" data-name="Layer 2"><g id="Layer_1-2" data-name="Layer 1"><polygon class="cls-1" points="163.38 0 163.38 111.42 141.84 133.29 21.54 133.29 0 111.42 0 0 163.38 0"/><path class="cls-2" d="M116.26,68.07S110.77,64.9,102.33,66c0,0,20.25-7.39,17.93-20.26S73,28.4,38.84,33.26c0,0-.23,21.94,6.53,31.85s13.5,10.55,12.87,24.48c0,0,12.44-2.75,20.46,4a25.61,25.61,0,0,0,17.72,5.69s7.81-1.69,21.52,17.94C117.94,117.23,129.34,74,116.26,68.07ZM70.68,41.48c18.15.43,25.74,2.75,27.22,3.38s8,7,0,15S68.15,74.28,68.15,74.28C71.74,66.78,70.68,41.48,70.68,41.48ZM93.05,89.17c-5.91-.64-18.57-3.8-24.9-3.17s0-7,0-7,15.4-4.43,20.26-6.75,17.3-.42,17.51,6.75S99,89.8,93.05,89.17Z"/></g></g></svg>