<svg xmlns="http://www.w3.org/2000/svg" viewBox="0 0 488.2 78.66"><defs><style>.cls-1{fill:#712296;}</style></defs><title>symphony of colors</title><g id="Layer_2" data-name="Layer 2"><g id="Layer_1-2" data-name="Layer 1"><path class="cls-1" d="M18.06,46a55.85,55.85,0,0,0-8.2-.2,11.61,11.61,0,0,0-5.27,1.95A4.1,4.1,0,0,0,2.83,53a11,11,0,0,0,2.83,4.3,39.46,39.46,0,0,0,12.11,8.1A40.67,40.67,0,0,0,36.7,68.85a20.08,20.08,0,0,0,7.42-1.66c.2,0,.29,0,.39-.1,4.88-2.34,5.76-5.57,5.08-9.86A18.88,18.88,0,0,0,47,50c-2.05-3.32-4.2-6.54-6.25-10-2.44-3.81-5-7.71-6-12.2a10.89,10.89,0,0,1,2.93-10.74,20.42,20.42,0,0,1,6.15-4.29,39.88,39.88,0,0,1,19-3.91,9.81,9.81,0,0,1,3.71.59,6.46,6.46,0,0,1,4.88,6.25,11,11,0,0,1-1.66,6.73,26.63,26.63,0,0,1-3.81,5c-2.63,2.83-5.56,5.66-8.39,8.2a4,4,0,0,1-2.83,1.56c-.29-.68.29-1,.49-1.27,2.73-2.73,5.56-5.47,8.1-8.3a48.15,48.15,0,0,0,4.59-6.44,7.77,7.77,0,0,0,1.17-5.07c-.1-2.35-1.27-4.1-3.71-4.49A17,17,0,0,0,61,11.06a38.74,38.74,0,0,0-18,4.88,17,17,0,0,0-3,2.15,8.65,8.65,0,0,0-2.93,9.27,22.64,22.64,0,0,0,3.13,7.42c2.05,3.32,4.19,6.54,6.34,10a36.15,36.15,0,0,1,4.88,10.15,13.91,13.91,0,0,1,.78,3.8c.39,4.69-1.66,8-5.66,10.25a22.66,22.66,0,0,1-10.44,2.44A43.81,43.81,0,0,1,7.91,62.7a24.86,24.86,0,0,1-6.15-6.25c-3.32-4.88-1.86-9.76,3.71-12a21.25,21.25,0,0,1,10.15-1.17,19.61,19.61,0,0,1,8.1,2.34,8.93,8.93,0,0,1,.88.59.46.46,0,0,1-.1.29C22.35,46.3,20.2,46.2,18.06,46Z"/><path class="cls-1" d="M84.62,45c2.44-1.27,4.79-2.64,7.23-3.91a4.07,4.07,0,0,1,2.05-.58,2.14,2.14,0,0,1,1.36.78c.39.68,0,1.17-.78,1.66-1.27.78-2.83,1.37-4.2,2.24-3.31,2.15-6.73,4.4-10.15,6.54-2,1.37-3.12,3.52-4.59,5.47A109,109,0,0,1,62.07,74.51a32.6,32.6,0,0,1-3.41,2.73A7.52,7.52,0,0,1,56,78.61a1.92,1.92,0,0,1-2.44-2.25A5,5,0,0,1,54.27,74a34,34,0,0,1,7.41-9.66c4.4-4.2,8.89-8.2,13.38-12.4a26.76,26.76,0,0,0,2-2.54c2.14-3.41,4.29-7,6.44-10.64a2.94,2.94,0,0,0-2,1c-2.34,1.66-4.69,3.51-7.52,4.49a2.07,2.07,0,0,1-1.27.49c-2.63.39-4.29-1.08-3.61-3.71a24.12,24.12,0,0,1,1.56-3.61c1.08-1.76,2.15-3.52,3.32-5.18.59-.78,1.37-1.36,2.44-.29a6.68,6.68,0,0,1-.88,1.66c-1.07,2.15-2.24,4.1-3.41,6.15-.29.68-.39,1.36-.88,2.44a10.87,10.87,0,0,0,2.34-.39c1.76-1.08,3.52-2.05,5.18-3.22,2.14-1.66,4.1-3.42,6.24-5.18.78-.78,1.66-1.46,2.93-.78.88.49,1,1.56.1,3.22-1.37,2.83-3,5.67-4.49,8.69A7.87,7.87,0,0,0,82.77,46,8.31,8.31,0,0,0,84.62,45ZM57.68,74.12c2.74-1.56,9-8.59,11.13-12.5C64.32,65.23,58.76,71.58,57.68,74.12Z"/><path class="cls-1" d="M109.8,39.66c2.74-1.56,5.27-3.12,8-4.49a11.91,11.91,0,0,1,3.51-1.37c1.86-.39,3.22.39,3.52,2.35a9.46,9.46,0,0,1,.09,3.71c-.29,2.92,1.08,3.61,3.61,2.83a59.2,59.2,0,0,0,5.76-2.15c1.57-.49,2.15-.39,2.44.1s.2,1.66-1.36,2.24a20.25,20.25,0,0,1-7.81,2.83c-3.52.39-5.27-1.27-5.37-4.68,0-.78.1-1.37.1-2.15,0-2.73.39-4.2-2.25-2.44-2.63,1.46-5.85,3.81-8.49,5.27a8.2,8.2,0,0,1-2.93,1.17c-2,.59-3.32-.19-4-2.24-.88-2.15-.19-3.32-2.54-1.66-2.54,2-5.27,5.27-7.81,7.32a11.69,11.69,0,0,1-1.75,1.36,1.32,1.32,0,0,1-1.86-1.56,3.63,3.63,0,0,1,.69-1.56c1.46-2.93,2.92-5.76,4.58-8.78a2.32,2.32,0,0,1,.59-1.18c.39-.29,1-.58,1.37-.39a1.46,1.46,0,0,1,.68,1.18c-.2.68-.49,1.26-.68,1.85-.49,1-2.15,3.9-2.25,5.08,1.07-.69,3.32-3.52,4.49-4.3a15,15,0,0,1,2.34-1.37c2.15-.87,3.71-.09,4.49,2.15.1.39.2.88.3,1.27C108.24,40.54,109,40.05,109.8,39.66Z"/><path class="cls-1" d="M120,70c-.49.49-.78,1.07-1.37,1.66a1.48,1.48,0,0,1-2,.19,1.57,1.57,0,0,1-.49-1.85,7.64,7.64,0,0,1,.88-1.56c7.13-9.77,13.18-20,19.52-30.17,1.37-2.14,2.64-4.19,4-6.44a2.12,2.12,0,0,1,2-1.27c.87.78.29,1.56,0,2.44-.88,1.56-1.76,3.13-2.64,4.79a5.63,5.63,0,0,0-1,1.85c.1,0,.1.1.2.2.59-.59,1.07-1,1.66-1.57,2.54-2.14,4.78-4.39,7.42-6.44A19.42,19.42,0,0,1,153,29.61a3.8,3.8,0,0,1,2.34-.3A3.74,3.74,0,0,1,158.9,33,8.82,8.82,0,0,1,157,38a12.65,12.65,0,0,0-1.27,1.56,7.86,7.86,0,0,0,1.37.1c1.66.1,3.32.1,5,.2a7.3,7.3,0,0,1,2.54.58,1.47,1.47,0,0,1,1,1.86,1.24,1.24,0,0,1-1.66.78,27.36,27.36,0,0,0-10.93,0,10.15,10.15,0,0,0-3.51,1c-2.44.88-4.79,1.86-7,2.74-1.56.48-2.93.19-3.81-2C130.2,52.84,125.42,60.65,120,70Zm28.8-29.48c3-.88,5-3,6.63-5.47A4.94,4.94,0,0,0,156,33.8c.19-1.17-.39-1.85-1.56-1.75a10.1,10.1,0,0,0-2.93,1c-3.32,1.76-6,4.4-8.59,7-.59.78-1.27,1.47-2.15,2.54C143.77,41.81,146.31,41.32,148.75,40.54Z"/><path class="cls-1" d="M177.73,38c-2.83,1.66-5.27,4.2-7.71,6.54s-5.07,4.78-7.51,7.22c-.49.39-1,1-1.57,1.08s-1.46.19-1.75-.2A1.49,1.49,0,0,1,158.8,51a6.83,6.83,0,0,1,1-2.63,286.68,286.68,0,0,1,15.72-26.16c3.9-5.76,10.83-16.69,15.42-21.57,1.56-1.76,3.71.68,2.25,1.85-7.91,9.66-17.48,24.31-24,34.85-1.65,2.73-3.32,5.46-4.88,8.39.88,0,1.18-.49,1.56-1,2-1.76,3.81-3.62,5.67-5.27a51.55,51.55,0,0,1,5.27-4.1,4.93,4.93,0,0,1,1.75-.79c2.93-1,4.49.3,4.2,3.52-.1,1-.39,1.95-.58,3a22.1,22.1,0,0,0-.59,3.42c1.07-.49,2-.68,2.73-1,1.86-1,3.71-2.14,5.57-3,3.9-1.66,4,1.17,1.36,2.44-2.53,1.46-5.17,2.63-7.8,4a3.86,3.86,0,0,1-1.66.29,2.43,2.43,0,0,1-2.84-2.63,24.83,24.83,0,0,1,.59-4.49c.1-.88.2-1.86.39-3.22A22.49,22.49,0,0,0,177.73,38Z"/><path class="cls-1" d="M207.4,40.15c1.08-.2,2.84-.39,4-.59a3.48,3.48,0,0,1,1.46.2,1.31,1.31,0,0,1,.68,1.27,1.62,1.62,0,0,1-1,.78,22.6,22.6,0,0,1-3.61.58c-2.44.49-4.88.78-7.23,1.27a2.65,2.65,0,0,0-1.75,1c-2.74,2.54-4.1,4.29-6.54,5.07-3.52,1.08-7.13-1.26-2.35-8.88a29,29,0,0,1,6.64-6.73,6.77,6.77,0,0,1,3.71-1.57c2.15-.19,3.42.79,3.32,2.93a27.35,27.35,0,0,1-.78,3.32c-.3.59-.59,1.17-1,2C204.57,40.54,206,40.44,207.4,40.15Zm-10,3.61c-2,0-3.42-.59-3.81-2.44C189.15,46.69,194.91,49.32,197.45,43.76Zm-.59-4.88a1.05,1.05,0,0,0,.29,1.56,2,2,0,0,0,3-.39,13.7,13.7,0,0,0,1.76-3.61c.19-.2,0-.78,0-1.56A8.55,8.55,0,0,0,196.86,38.88Z"/><path class="cls-1" d="M240.69,41.71c4.1-1.85,5.07.68,1.27,2.44-4,1.86-8.2,3.61-12.3,5.27a5.25,5.25,0,0,1-4,.2C224.48,49,224,48,224.29,46.3c.29-1.27.88-2.15,1.17-3.32,1.17-2.83,2.24-5-1.85-3.61-2.15,1.17-4.4,2.44-6.45,3.71s-3.8,2.83-5.85,4.29a3.31,3.31,0,0,1-1.08.88c-.58.29-1.36.78-2.14,0a1.41,1.41,0,0,1,0-2c1.07-1.56,2-3.12,3-4.68,1.27-1.66,2.44-3.42,3.61-5.18a4.52,4.52,0,0,0,.69-1.17c1-1.27,1.85-1.85,2.44-1.27.58.39.39,1.27-.59,2.83-.88,1.37-1.66,2.83-2.63,4.1-.69,1-5.18,5.66-2,2.93A48.51,48.51,0,0,1,222,37.61c2.74-1.37,6.74-2.63,7.13,1.66.29,2-1.17,3.71-2,5.66-.88,2.44-.78,3.61,1.85,2.54A129.33,129.33,0,0,0,240.69,41.71Z"/><path class="cls-1" d="M257.28,45c2.44-1.27,4.78-2.64,7.22-3.91a4.1,4.1,0,0,1,2.05-.58,2.16,2.16,0,0,1,1.37.78c.39.68,0,1.17-.78,1.66-1.27.78-2.83,1.37-4.2,2.24-3.32,2.15-6.74,4.4-10.15,6.54-2,1.37-3.13,3.52-4.59,5.47a109.59,109.59,0,0,1-13.47,17.28,32.74,32.74,0,0,1-3.42,2.73,7.56,7.56,0,0,1-2.63,1.37,1.91,1.91,0,0,1-2.44-2.25,5,5,0,0,1,.68-2.34,34.06,34.06,0,0,1,7.42-9.66c4.39-4.2,8.88-8.2,13.37-12.4a24,24,0,0,0,2-2.54c2.15-3.41,4.3-7,6.44-10.64a2.94,2.94,0,0,0-2,1c-2.34,1.66-4.68,3.51-7.51,4.49a2.07,2.07,0,0,1-1.27.49c-2.64.39-4.3-1.08-3.61-3.71a23.13,23.13,0,0,1,1.56-3.61c1.07-1.76,2.15-3.52,3.32-5.18.58-.78,1.36-1.36,2.44-.29a6.68,6.68,0,0,1-.88,1.66c-1.07,2.15-2.25,4.1-3.42,6.15-.29.68-.39,1.36-.88,2.44a11,11,0,0,0,2.35-.39c1.75-1.08,3.51-2.05,5.17-3.22,2.15-1.66,4.1-3.42,6.25-5.18.78-.78,1.66-1.46,2.93-.78.88.49,1,1.56.09,3.22-1.36,2.83-3,5.67-4.49,8.69a8.55,8.55,0,0,0-.78,1.47A8.42,8.42,0,0,0,257.28,45ZM230.34,74.12c2.73-1.56,9-8.59,11.13-12.5C237,65.23,231.41,71.58,230.34,74.12Z"/><path class="cls-1" d="M305.69,40.15c1.07-.2,2.83-.39,4-.59a3.45,3.45,0,0,1,1.46.2,1.34,1.34,0,0,1,.69,1.27,1.64,1.64,0,0,1-1,.78,22.6,22.6,0,0,1-3.61.58c-2.44.49-4.88.78-7.22,1.27a2.67,2.67,0,0,0-1.76,1c-2.74,2.54-4.1,4.29-6.54,5.07-3.52,1.08-7.13-1.26-2.34-8.88A29,29,0,0,1,296,34.1a6.8,6.8,0,0,1,3.71-1.57c2.15-.19,3.42.79,3.32,2.93a25.6,25.6,0,0,1-.78,3.32c-.29.59-.59,1.17-1,2C302.86,40.54,304.32,40.44,305.69,40.15Zm-10,3.61c-2.05,0-3.42-.59-3.81-2.44C287.43,46.69,293.19,49.32,295.73,43.76Zm-.59-4.88a1.05,1.05,0,0,0,.3,1.56,2,2,0,0,0,3-.39,13.7,13.7,0,0,0,1.76-3.61c.2-.2,0-.78,0-1.56A8.55,8.55,0,0,0,295.14,38.88Z"/><path class="cls-1" d="M330.57,23.85C328,24.82,319.45,35.17,317,40c6.34,1.08,15.13.39,20.5-.48.78-.1,1.46.09,1.56,1.65.09.88-.69,1.08-1.37,1.08a37.65,37.65,0,0,0-11.13.58c.39,4.1-1.46,7.72-3.22,10.35a50.71,50.71,0,0,1-15,14.54,22.77,22.77,0,0,1-3.42,1.27c-2.34.39-4-1.66-3.61-4.49a16.68,16.68,0,0,1,1.08-3.12c3-6.25,6.24-12.88,8.59-17.86-2.44-.1-3.23-3.71,0-3.91,2.24-.29,2.53.69,3.7-1.46a81.27,81.27,0,0,1,12.69-15.81,12.86,12.86,0,0,1,2.15-1.86,11.68,11.68,0,0,1,1.37-.88c1.56-.49,3.12,1,2.83,3a9.83,9.83,0,0,1-1.08,3.51,39.76,39.76,0,0,1-10.24,12c-.79.68-1.66,1.17-2.93-.39C323.64,33.8,327.74,29.61,330.57,23.85ZM313.88,44c-1.07,1.36-3.22,6.34-4,7.8-1.85,4-3.61,8.11-5.56,12.11a6.86,6.86,0,0,0-.29,1.46.61.61,0,0,0,.29.49c.88-.39,1.95-.59,2.83-1,6.25-3.9,11.32-9.46,15.62-16.2A17.07,17.07,0,0,0,324,42.88C320.72,43.56,315.25,42.2,313.88,44Z"/><path class="cls-1" d="M380.94,43.66c-4.3,1.86-8.59,3.42-13.28,3.71a7.11,7.11,0,0,1-3.51-.1c-3-.78-4.39-3.22-3-6.34.2-.39.39-.88.59-1.27a15.66,15.66,0,0,1,9.37-6.34,6,6,0,0,1,3.71.09,2.94,2.94,0,0,1,1.27,4.69,2.23,2.23,0,0,1-1.17.49c-.2,0-.39-.69-.59-.88-.29-2.05-.68-2.44-2.64-2a14.44,14.44,0,0,0-7.41,5.17,5.16,5.16,0,0,0-.69,1.27c-.39,1.27-.09,2,1.27,2.34a6.48,6.48,0,0,0,3,.1A29.39,29.39,0,0,0,377.62,42a29.2,29.2,0,0,1,3.71-1.36c3.22-.78,3.71.68,1,2.34A5.77,5.77,0,0,1,380.94,43.66Z"/><path class="cls-1" d="M399.19,40.15c1.07-.2,2.83-.39,4-.59a3.45,3.45,0,0,1,1.46.2,1.3,1.3,0,0,1,.69,1.27,1.64,1.64,0,0,1-1,.78,22.6,22.6,0,0,1-3.61.58c-2.44.49-4.88.78-7.22,1.27a2.67,2.67,0,0,0-1.76,1c-2.73,2.54-4.1,4.29-6.54,5.07-3.51,1.08-7.13-1.26-2.34-8.88a29,29,0,0,1,6.64-6.73,6.73,6.73,0,0,1,3.7-1.57c2.15-.19,3.42.79,3.32,2.93a25.6,25.6,0,0,1-.78,3.32c-.29.59-.58,1.17-1,2C396.36,40.54,397.82,40.44,399.19,40.15Zm-10,3.61c-2.05,0-3.41-.59-3.8-2.44C380.94,46.69,386.69,49.32,389.23,43.76Zm-.58-4.88a1,1,0,0,0,.29,1.56,2,2,0,0,0,3-.39,13.67,13.67,0,0,0,1.75-3.61c.2-.2,0-.78,0-1.56A8.5,8.5,0,0,0,388.65,38.88Z"/><path class="cls-1" d="M417.15,42.3c3.41-3.52,4.88-2.54,1.56,1.85s-7.32,7.71-11,11.32A27.32,27.32,0,0,1,404.36,58a8.6,8.6,0,0,1-1.85.88c-2.44.68-4-.68-4.2-3.12a8,8,0,0,1,.29-3c1-5.08,3.22-9.57,5.57-14.06a14.88,14.88,0,0,1,1.36-2.44c.69-1.17,1.37-2.24.29-3.31a4.19,4.19,0,0,1,.49-.79c2.44-1.07,3.52-3.41,5-5.36C415,21.5,418.71,16,423.2,11.45a27.11,27.11,0,0,1,2.54-2.24A4.7,4.7,0,0,1,427.49,8a2.54,2.54,0,0,1,2.74,0,2.12,2.12,0,0,1,.39,2.74,28.31,28.31,0,0,1-2.25,4.1,101.16,101.16,0,0,1-14.25,14.64,29,29,0,0,0-4.29,4.78,118.76,118.76,0,0,0-7.13,14.16c-.49,1.65-1,3.41-1.37,5.07-1.17,4.49,2.35,3,3.81,1.76C409.24,51,413.73,45.71,417.15,42.3ZM413.93,28c3.12-3,19.13-19.92,11.9-14.94C423.49,15.26,414.51,25.12,413.93,28Z"/><path class="cls-1" d="M435.2,40.15c1.08-.2,2.83-.39,4-.59a3.5,3.5,0,0,1,1.47.2,1.31,1.31,0,0,1,.68,1.27,1.62,1.62,0,0,1-1,.78,22.78,22.78,0,0,1-3.61.58c-2.45.49-4.89.78-7.23,1.27a2.69,2.69,0,0,0-1.76,1c-2.73,2.54-4.09,4.29-6.54,5.07-3.51,1.08-7.12-1.26-2.34-8.88a29,29,0,0,1,6.64-6.73,6.77,6.77,0,0,1,3.71-1.57c2.15-.19,3.42.79,3.32,2.93a27.35,27.35,0,0,1-.78,3.32c-.3.59-.59,1.17-1,2C432.37,40.54,433.84,40.44,435.2,40.15Zm-9.95,3.61c-2.05,0-3.42-.59-3.81-2.44C417,46.69,422.71,49.32,425.25,43.76Zm-.59-4.88a1.05,1.05,0,0,0,.29,1.56,2,2,0,0,0,3-.39,13.7,13.7,0,0,0,1.76-3.61c.19-.2,0-.78,0-1.56A8.55,8.55,0,0,0,424.66,38.88Z"/><path class="cls-1" d="M452.09,38.68c-1.66-3.7-6,1-7.52,2.35a21.31,21.31,0,0,0-5.27,6.34c-.88,2-3.61,2.83-3.61.59,0-.59.39-1,.59-1.47,2.44-4.39,4.78-8.88,7.22-13.27a7.15,7.15,0,0,1,1.27-1.76,1.06,1.06,0,0,1,1.07-.19,1.14,1.14,0,0,1,.49,1.07,4.7,4.7,0,0,1-.39,1.66,41.24,41.24,0,0,0-2.34,5.17,9.21,9.21,0,0,0,1-.78c1.27-1,2.34-2,3.52-2.83a4.94,4.94,0,0,1,2.63-1.17,2.86,2.86,0,0,1,3.81,2.15c.29,1,.39,2,.58,2.83.3,1.46.79,1.75,2.35,1.66.58,0,1.36-.1,2.05-.1,3.71-.29,2.63,3.32-3.32,3C453.07,43.76,452.67,40.93,452.09,38.68Z"/><path class="cls-1" d="M466.73,35.56c-2,1.17-5.27,4.59-2.93,6.54A54.33,54.33,0,0,0,468,46c3.71-1.66,7.42-2.74,11.12-4.89a5.81,5.81,0,0,1,2.15-.78c.69,0,1.37.1,1.66,1-.39,1.17-1.46,1.46-2.34,1.76-3.52,1.56-10.84,3.41-12.59,6.05A9.08,9.08,0,0,1,465.36,52a21.06,21.06,0,0,1-9,3.51,8.68,8.68,0,0,1-2.73-.19c-.49-.1-.88-.78-1-1.37s.49-.78,1-1.17a33.61,33.61,0,0,1,11.13-6.05,13.52,13.52,0,0,1-1.27-1.17,18.75,18.75,0,0,1-2.44-2.44,4.22,4.22,0,0,1,.09-5.76,13.4,13.4,0,0,1,8.11-4.39c2-.3,3.31.29,3.9,1.65a3.45,3.45,0,0,1-.78,4.1A6.94,6.94,0,0,1,469.17,41c-.1-.2-.29-.3-.39-.59C471.22,38.2,471.12,33,466.73,35.56Zm-1.56,13.57c-2.44,0-6.35,1.07-8,3.32C455.4,55.57,461.65,52.55,465.17,49.13Z"/><path class="cls-1" d="M486.35,48.64c-1.08,0-1.66-.58-1.57-1.56a1.86,1.86,0,0,1,2-1.76,1.42,1.42,0,0,1,1.46,1.37A1.94,1.94,0,0,1,486.35,48.64Z"/></g></g></svg>