<svg xmlns="http://www.w3.org/2000/svg" viewBox="0 0 452.23 72.87"><defs><style>.cls-1{fill:#e2e2e2;}</style></defs><title>symphony of colors beli</title><g id="Layer_2" data-name="Layer 2"><g id="Layer_1-2" data-name="Layer 1"><path class="cls-1" d="M16.73,42.62a51.85,51.85,0,0,0-7.6-.18,10.73,10.73,0,0,0-4.88,1.8,3.8,3.8,0,0,0-1.63,4.89,10.19,10.19,0,0,0,2.62,4,36.46,36.46,0,0,0,11.22,7.51A37.52,37.52,0,0,0,34,63.77a18.55,18.55,0,0,0,6.87-1.53c.18,0,.27,0,.36-.09C45.75,60,46.57,57,45.93,53a17.46,17.46,0,0,0-2.44-6.69c-1.9-3.07-3.89-6.06-5.78-9.22-2.27-3.53-4.62-7.14-5.52-11.3a10.09,10.09,0,0,1,2.71-10,19.16,19.16,0,0,1,5.7-4A36.91,36.91,0,0,1,58.23,8.26a9.2,9.2,0,0,1,3.44.54,6,6,0,0,1,4.52,5.79,10.15,10.15,0,0,1-1.54,6.23,25.13,25.13,0,0,1-3.53,4.62C58.68,28.06,56,30.68,53.35,33a3.7,3.7,0,0,1-2.62,1.45c-.28-.64.27-.91.45-1.18,2.53-2.53,5.15-5.06,7.5-7.68a44.19,44.19,0,0,0,4.25-6A7.12,7.12,0,0,0,64,15c-.09-2.17-1.18-3.8-3.44-4.16a15.81,15.81,0,0,0-4.07-.54,35.75,35.75,0,0,0-16.64,4.52,15.57,15.57,0,0,0-2.8,2,8,8,0,0,0-2.71,8.59,21.06,21.06,0,0,0,2.89,6.87c1.9,3.07,3.89,6.06,5.88,9.22a33.29,33.29,0,0,1,4.52,9.4,13,13,0,0,1,.72,3.53c.37,4.34-1.53,7.41-5.24,9.49a21.22,21.22,0,0,1-9.67,2.27,40.67,40.67,0,0,1-26.14-8,23,23,0,0,1-5.69-5.79c-3.08-4.52-1.72-9,3.43-11.12a19.58,19.58,0,0,1,9.41-1.09A18.08,18.08,0,0,1,22,42.25a8.94,8.94,0,0,1,.82.55.41.41,0,0,1-.1.27C20.71,42.89,18.72,42.8,16.73,42.62Z"/><path class="cls-1" d="M78.39,41.71c2.26-1.17,4.43-2.44,6.69-3.62a3.82,3.82,0,0,1,1.9-.54,1.94,1.94,0,0,1,1.26.73c.37.63,0,1.08-.72,1.53-1.17.73-2.62,1.27-3.89,2.08-3.07,2-6.24,4.07-9.4,6.06C72.33,49.22,71.34,51.21,70,53A101.56,101.56,0,0,1,57.5,69a29.91,29.91,0,0,1-3.16,2.53,7.25,7.25,0,0,1-2.44,1.27,1.77,1.77,0,0,1-2.26-2.08,4.63,4.63,0,0,1,.63-2.17,31.73,31.73,0,0,1,6.87-9c4.07-3.88,8.23-7.59,12.39-11.48a25.65,25.65,0,0,0,1.9-2.35c2-3.16,4-6.51,6-9.86a2.74,2.74,0,0,0-1.9.91,28.17,28.17,0,0,1-7,4.16,1.9,1.9,0,0,1-1.17.45c-2.44.36-4-1-3.35-3.44a22,22,0,0,1,1.45-3.34c1-1.63,2-3.26,3.07-4.79.55-.73,1.27-1.27,2.26-.28A6.18,6.18,0,0,1,70,31.13c-1,2-2.08,3.8-3.17,5.7-.27.63-.36,1.26-.81,2.26a9.64,9.64,0,0,0,2.17-.36c1.63-1,3.26-1.9,4.79-3,2-1.53,3.8-3.16,5.79-4.79.72-.72,1.54-1.36,2.71-.72.82.45.91,1.44.09,3-1.26,2.62-2.8,5.25-4.16,8a7.43,7.43,0,0,0-.72,1.36A7.82,7.82,0,0,0,78.39,41.71Zm-25,26.95c2.53-1.45,8.32-8,10.31-11.58C59.58,60.43,54.43,66.31,53.43,68.66Z"/><path class="cls-1" d="M101.71,36.74c2.54-1.45,4.89-2.9,7.42-4.16a11.09,11.09,0,0,1,3.25-1.27,2.45,2.45,0,0,1,3.26,2.17,8.86,8.86,0,0,1,.09,3.44c-.27,2.71,1,3.34,3.34,2.62a54.14,54.14,0,0,0,5.34-2c1.45-.45,2-.36,2.26.09s.18,1.54-1.27,2.08a18.75,18.75,0,0,1-7.23,2.62c-3.26.37-4.88-1.17-5-4.34,0-.72.09-1.26.09-2,0-2.53.36-3.88-2.08-2.26-2.44,1.36-5.43,3.53-7.87,4.89a7.78,7.78,0,0,1-2.71,1.08c-1.9.54-3.08-.18-3.71-2.08-.81-2-.18-3.07-2.35-1.53-2.35,1.8-4.88,4.88-7.23,6.78a11.8,11.8,0,0,1-1.63,1.26A1.22,1.22,0,0,1,84,42.71a3.35,3.35,0,0,1,.63-1.45c1.36-2.71,2.72-5.34,4.25-8.14A2.14,2.14,0,0,1,89.42,32c.36-.27.9-.55,1.26-.37a1.36,1.36,0,0,1,.64,1.09c-.18.63-.46,1.18-.64,1.72-.45.9-2,3.61-2.08,4.7,1-.63,3.08-3.26,4.16-4a14,14,0,0,1,2.17-1.26c2-.82,3.44-.1,4.16,2,.09.37.18.82.27,1.18A2.43,2.43,0,0,0,101.71,36.74Z"/><path class="cls-1" d="M111.11,64.86c-.45.45-.72,1-1.26,1.54a1.38,1.38,0,0,1-1.81.18,1.46,1.46,0,0,1-.45-1.72,6.93,6.93,0,0,1,.81-1.45c6.6-9,12.21-18.53,18.08-27.94,1.27-2,2.45-3.89,3.71-6a2,2,0,0,1,1.9-1.18c.81.72.27,1.45,0,2.26-.81,1.45-1.63,2.89-2.44,4.43a5.42,5.42,0,0,0-.91,1.72c.1,0,.1.09.19.18.54-.54,1-.91,1.53-1.45,2.35-2,4.43-4.07,6.87-6a17.9,17.9,0,0,1,4.44-2.08,3.4,3.4,0,0,1,2.17-.28,3.46,3.46,0,0,1,3.25,3.44,8.18,8.18,0,0,1-1.72,4.61,10.83,10.83,0,0,0-1.17,1.45,7.35,7.35,0,0,0,1.26.09c1.54.09,3.08.09,4.61.18a7,7,0,0,1,2.36.54,1.36,1.36,0,0,1,.9,1.72,1.14,1.14,0,0,1-1.54.72,25.54,25.54,0,0,0-10.12,0,9.74,9.74,0,0,0-3.26.91c-2.26.81-4.43,1.72-6.51,2.53-1.45.45-2.71.18-3.53-1.81C120.61,48.94,116.18,56.18,111.11,64.86Zm26.68-27.31c2.8-.81,4.61-2.8,6.15-5.06a4.57,4.57,0,0,0,.54-1.18c.18-1.08-.36-1.72-1.45-1.62a9.6,9.6,0,0,0-2.71.9c-3.08,1.63-5.52,4.07-8,6.51-.54.72-1.17,1.36-2,2.35C133.18,38.73,135.53,38.28,137.79,37.55Z"/><path class="cls-1" d="M164.64,35.2c-2.62,1.54-4.88,3.89-7.14,6.06s-4.71,4.43-7,6.69c-.45.36-.9.9-1.44,1s-1.36.19-1.63-.18a1.38,1.38,0,0,1-.36-1.53,6.12,6.12,0,0,1,.9-2.44,265.85,265.85,0,0,1,14.56-24.24c3.62-5.33,10-15.46,14.29-20,1.44-1.63,3.43.63,2.08,1.72-7.33,9-16.19,22.51-22.25,32.28-1.53,2.53-3.07,5.06-4.52,7.77.82,0,1.09-.45,1.45-.9,1.81-1.63,3.53-3.35,5.24-4.88a50.66,50.66,0,0,1,4.89-3.8,4.45,4.45,0,0,1,1.62-.72c2.72-.91,4.16.27,3.89,3.25-.09.91-.36,1.81-.54,2.8a20.8,20.8,0,0,0-.54,3.17c1-.45,1.8-.63,2.53-.9,1.72-.91,3.43-2,5.15-2.81,3.62-1.54,3.71,1.09,1.27,2.26-2.35,1.36-4.79,2.44-7.24,3.71a3.59,3.59,0,0,1-1.53.27,2.25,2.25,0,0,1-2.63-2.44,23,23,0,0,1,.55-4.16c.09-.81.18-1.72.36-3A19.26,19.26,0,0,0,164.64,35.2Z"/><path class="cls-1" d="M192.12,37.19c1-.18,2.63-.36,3.71-.54a3.33,3.33,0,0,1,1.36.18,1.22,1.22,0,0,1,.63,1.17c0,.19-.63.73-.9.73a21.63,21.63,0,0,1-3.35.54c-2.26.45-4.52.72-6.69,1.18a2.49,2.49,0,0,0-1.63.9c-2.53,2.35-3.8,4-6.06,4.7-3.25,1-6.6-1.17-2.17-8.23a26.94,26.94,0,0,1,6.15-6.24,6.28,6.28,0,0,1,3.44-1.44c2-.18,3.16.72,3.07,2.71a24.67,24.67,0,0,1-.72,3.07c-.27.55-.54,1.09-.91,1.9C189.5,37.55,190.86,37.46,192.12,37.19Zm-9.22,3.35c-1.9,0-3.16-.55-3.52-2.26C175.22,43.25,180.55,45.69,182.9,40.54ZM182.36,36a1,1,0,0,0,.27,1.45,1.85,1.85,0,0,0,2.8-.36,12.36,12.36,0,0,0,1.63-3.35c.18-.18,0-.72,0-1.44A7.91,7.91,0,0,0,182.36,36Z"/><path class="cls-1" d="M223,38.64c3.79-1.72,4.7.63,1.17,2.26-3.71,1.72-7.59,3.34-11.39,4.88A4.85,4.85,0,0,1,209,46c-1.08-.54-1.54-1.54-1.27-3.07.28-1.18.82-2,1.09-3.08,1.08-2.62,2.08-4.61-1.72-3.34-2,1.08-4.07,2.26-6,3.43s-3.52,2.63-5.42,4a3.08,3.08,0,0,1-1,.82c-.54.27-1.26.72-2,0a1.3,1.3,0,0,1,0-1.9c1-1.45,1.89-2.9,2.8-4.34,1.17-1.54,2.26-3.17,3.34-4.8a4.28,4.28,0,0,0,.64-1.08c.9-1.18,1.71-1.72,2.26-1.18.54.37.36,1.18-.55,2.63-.81,1.26-1.53,2.62-2.44,3.79-.63.91-4.79,5.25-1.8,2.72a44.8,44.8,0,0,1,8.68-5.7c2.53-1.27,6.23-2.44,6.6,1.54.27,1.9-1.09,3.43-1.9,5.24-.82,2.26-.73,3.35,1.72,2.35C215.27,42.8,219.79,40.26,223,38.64Z"/><path class="cls-1" d="M238.32,41.71c2.26-1.17,4.43-2.44,6.69-3.62a3.84,3.84,0,0,1,1.9-.54,1.94,1.94,0,0,1,1.27.73c.36.63,0,1.08-.72,1.53-1.18.73-2.63,1.27-3.89,2.08-3.08,2-6.24,4.07-9.41,6.06-1.89,1.27-2.89,3.26-4.25,5.06a100.91,100.91,0,0,1-12.47,16,30.05,30.05,0,0,1-3.17,2.53,7.07,7.07,0,0,1-2.44,1.27,1.77,1.77,0,0,1-2.26-2.08,4.63,4.63,0,0,1,.63-2.17,31.58,31.58,0,0,1,6.88-9c4.06-3.88,8.22-7.59,12.38-11.48a22.68,22.68,0,0,0,1.9-2.35c2-3.16,4-6.51,6-9.86a2.7,2.7,0,0,0-1.9.91,28.55,28.55,0,0,1-7,4.16,1.92,1.92,0,0,1-1.18.45c-2.44.36-4-1-3.34-3.44a22,22,0,0,1,1.44-3.34c1-1.63,2-3.26,3.08-4.79.54-.73,1.26-1.27,2.26-.28a5.91,5.91,0,0,1-.82,1.54c-1,2-2.08,3.8-3.16,5.7-.27.63-.36,1.26-.81,2.26a9.86,9.86,0,0,0,2.17-.36c1.62-1,3.25-1.9,4.79-3,2-1.53,3.8-3.16,5.79-4.79.72-.72,1.53-1.36,2.71-.72.81.45.9,1.44.09,3-1.27,2.62-2.8,5.25-4.16,8a7.43,7.43,0,0,0-.72,1.36A7.71,7.71,0,0,0,238.32,41.71ZM213.37,68.66c2.53-1.45,8.32-8,10.31-11.58C219.52,60.43,214.36,66.31,213.37,68.66Z"/><path class="cls-1" d="M283.17,37.19c1-.18,2.62-.36,3.7-.54a3.31,3.31,0,0,1,1.36.18,1.22,1.22,0,0,1,.63,1.17c0,.19-.63.73-.9.73a21.63,21.63,0,0,1-3.35.54c-2.26.45-4.52.72-6.69,1.18a2.51,2.51,0,0,0-1.63.9c-2.53,2.35-3.79,4-6.05,4.7-3.26,1-6.61-1.17-2.17-8.23a26.69,26.69,0,0,1,6.14-6.24,6.28,6.28,0,0,1,3.44-1.44c2-.18,3.17.72,3.07,2.71a24.67,24.67,0,0,1-.72,3.07c-.27.55-.54,1.09-.9,1.9C280.54,37.55,281.9,37.46,283.17,37.19Zm-9.23,3.35c-1.9,0-3.16-.55-3.52-2.26C266.26,43.25,271.59,45.69,273.94,40.54ZM273.4,36a1,1,0,0,0,.27,1.45,1.85,1.85,0,0,0,2.8-.36,12.36,12.36,0,0,0,1.63-3.35c.18-.18,0-.72,0-1.44A7.93,7.93,0,0,0,273.4,36Z"/><path class="cls-1" d="M306.22,22.09c-2.35.9-10.31,10.49-12.57,14.92,5.88,1,14,.36,19-.45.72-.09,1.36.09,1.45,1.53.09.82-.64,1-1.27,1a34.91,34.91,0,0,0-10.31.54c.37,3.8-1.35,7.15-3,9.59a47.18,47.18,0,0,1-13.92,13.47,21.37,21.37,0,0,1-3.17,1.17c-2.17.37-3.71-1.53-3.35-4.15a16.54,16.54,0,0,1,1-2.9c2.8-5.79,5.79-11.93,8-16.55-2.26-.09-3-3.43,0-3.61,2.08-.27,2.35.63,3.43-1.36a75.65,75.65,0,0,1,11.76-14.65,11.41,11.41,0,0,1,2-1.71,9,9,0,0,1,1.26-.82c1.45-.45,2.9.91,2.62,2.81a9.16,9.16,0,0,1-1,3.25,36.91,36.91,0,0,1-9.49,11.12c-.73.63-1.54,1.09-2.72-.36C299.8,31.31,303.6,27.43,306.22,22.09ZM290.76,40.72c-1,1.26-3,5.87-3.71,7.23-1.72,3.71-3.34,7.51-5.15,11.21a7.28,7.28,0,0,0-.27,1.36.56.56,0,0,0,.27.45c.81-.36,1.81-.54,2.62-.9,5.79-3.62,10.49-8.77,14.47-15a15.7,15.7,0,0,0,1.17-5.34C297.09,40.36,292,39.09,290.76,40.72Z"/><path class="cls-1" d="M352.87,40.45a36.85,36.85,0,0,1-12.29,3.43,6.7,6.7,0,0,1-3.26-.09c-2.8-.72-4.07-3-2.8-5.88.18-.36.36-.81.54-1.17a14.49,14.49,0,0,1,8.68-5.88,5.62,5.62,0,0,1,3.44.09,2.71,2.71,0,0,1,1.17,4.34,2,2,0,0,1-1.08.45c-.18,0-.36-.63-.55-.81-.27-1.9-.63-2.26-2.44-1.81a13.49,13.49,0,0,0-6.87,4.79,5.12,5.12,0,0,0-.63,1.18c-.36,1.17-.09,1.9,1.17,2.17a5.94,5.94,0,0,0,2.81.09,27.43,27.43,0,0,0,9-2.44,26.44,26.44,0,0,1,3.43-1.27c3-.72,3.44.64.91,2.17A6,6,0,0,1,352.87,40.45Z"/><path class="cls-1" d="M369.78,37.19c1-.18,2.62-.36,3.71-.54a3.28,3.28,0,0,1,1.35.18,1.23,1.23,0,0,1,.64,1.17c0,.19-.64.73-.91.73a21.51,21.51,0,0,1-3.34.54c-2.26.45-4.53.72-6.7,1.18a2.47,2.47,0,0,0-1.62.9c-2.53,2.35-3.8,4-6.06,4.7-3.26,1-6.6-1.17-2.17-8.23a26.94,26.94,0,0,1,6.15-6.24,6.24,6.24,0,0,1,3.43-1.44c2-.18,3.17.72,3.08,2.71a23.14,23.14,0,0,1-.73,3.07c-.27.55-.54,1.09-.9,1.9C367.16,37.55,368.51,37.46,369.78,37.19Zm-9.22,3.35c-1.9,0-3.17-.55-3.53-2.26C352.87,43.25,358.21,45.69,360.56,40.54ZM360,36a1,1,0,0,0,.27,1.45,1.86,1.86,0,0,0,2.81-.36,13,13,0,0,0,1.63-3.35c.18-.18,0-.72,0-1.44A8,8,0,0,0,360,36Z"/><path class="cls-1" d="M386.41,39.18c3.17-3.26,4.53-2.35,1.45,1.72S381.08,48,377.64,51.39a26.3,26.3,0,0,1-3.07,2.35,7.43,7.43,0,0,1-1.72.81c-2.26.63-3.71-.63-3.89-2.89a7.29,7.29,0,0,1,.28-2.81c.9-4.7,3-8.86,5.15-13a13.16,13.16,0,0,1,1.27-2.26c.63-1.08,1.26-2.08.27-3.07a3.4,3.4,0,0,1,.45-.72c2.26-1,3.25-3.17,4.61-5,3.44-4.88,6.87-9.94,11-14.19a24.43,24.43,0,0,1,2.35-2.08A4.32,4.32,0,0,1,396,7.44a2.34,2.34,0,0,1,2.53,0,1.94,1.94,0,0,1,.36,2.53,24.3,24.3,0,0,1-2.08,3.8,93.08,93.08,0,0,1-13.2,13.57,26.9,26.9,0,0,0-4,4.43A111.68,111.68,0,0,0,373,44.88c-.45,1.53-.9,3.16-1.26,4.7-1.09,4.16,2.17,2.8,3.52,1.63C379.09,47.23,383.25,42.34,386.41,39.18Zm-3-13.29c2.9-2.8,17.72-18.45,11-13.84C392.29,14.13,384,23.27,383.43,25.89Z"/><path class="cls-1" d="M403.14,37.19c1-.18,2.62-.36,3.71-.54a3.28,3.28,0,0,1,1.35.18,1.21,1.21,0,0,1,.64,1.17c0,.19-.64.73-.91.73a21.51,21.51,0,0,1-3.34.54c-2.26.45-4.52.72-6.69,1.18a2.47,2.47,0,0,0-1.63.9c-2.53,2.35-3.8,4-6.06,4.7-3.25,1-6.6-1.17-2.17-8.23a26.94,26.94,0,0,1,6.15-6.24,6.24,6.24,0,0,1,3.43-1.44c2-.18,3.17.72,3.08,2.71a24.67,24.67,0,0,1-.72,3.07c-.28.55-.55,1.09-.91,1.9C400.52,37.55,401.87,37.46,403.14,37.19Zm-9.22,3.35c-1.9,0-3.17-.55-3.53-2.26C386.23,43.25,391.57,45.69,393.92,40.54ZM393.37,36a1,1,0,0,0,.28,1.45,1.85,1.85,0,0,0,2.8-.36,12.66,12.66,0,0,0,1.63-3.35c.18-.18,0-.72,0-1.44A8,8,0,0,0,393.37,36Z"/><path class="cls-1" d="M418.78,35.83c-1.54-3.43-5.6.91-7,2.17a19.64,19.64,0,0,0-4.88,5.88c-.82,1.81-3.35,2.62-3.35.54,0-.54.36-.9.54-1.35,2.26-4.07,4.43-8.23,6.69-12.3A7.12,7.12,0,0,1,412,29.14a1,1,0,0,1,1-.18,1.06,1.06,0,0,1,.45,1,4.24,4.24,0,0,1-.36,1.53,37.45,37.45,0,0,0-2.17,4.8c.36-.28.72-.55.9-.73,1.18-.9,2.17-1.9,3.25-2.62a4.6,4.6,0,0,1,2.45-1.08,2.64,2.64,0,0,1,3.52,2c.27.91.36,1.81.55,2.63.27,1.35.72,1.62,2.16,1.53.55,0,1.27-.09,1.9-.09,3.44-.27,2.44,3.08-3.07,2.81C419.69,40.54,419.32,37.91,418.78,35.83Z"/><path class="cls-1" d="M432.34,32.94c-1.81,1.09-4.88,4.25-2.71,6.06a52,52,0,0,0,3.89,3.62c3.43-1.54,6.87-2.54,10.31-4.53a5.24,5.24,0,0,1,2-.72c.63,0,1.26.09,1.53.91-.36,1.08-1.35,1.35-2.17,1.62-3.25,1.45-10,3.17-11.66,5.61a8.42,8.42,0,0,1-2.44,2.62,19.68,19.68,0,0,1-8.32,3.26,8,8,0,0,1-2.53-.18c-.45-.1-.82-.73-.91-1.27s.46-.72.91-1.09a31.36,31.36,0,0,1,10.3-5.6,11.65,11.65,0,0,1-1.17-1.09,17.23,17.23,0,0,1-2.26-2.26,3.9,3.9,0,0,1,.09-5.33,12.39,12.39,0,0,1,7.5-4.07c1.81-.27,3.08.27,3.62,1.54a3.19,3.19,0,0,1-.72,3.79,6.37,6.37,0,0,1-3,2.17c-.09-.18-.27-.27-.36-.54C436.5,35.38,436.41,30.59,432.34,32.94ZM430.9,45.51c-2.26,0-5.88,1-7.42,3.07C421.85,51.48,427.64,48.67,430.9,45.51Z"/><path class="cls-1" d="M450.51,45.06c-1,0-1.53-.55-1.44-1.45A1.72,1.72,0,0,1,450.88,42a1.32,1.32,0,0,1,1.35,1.27A1.8,1.8,0,0,1,450.51,45.06Z"/></g></g></svg>