<svg xmlns="http://www.w3.org/2000/svg" viewBox="0 0 125.49 123.51"><defs><style>.cls-1{fill:#d9af62;}</style></defs><title>orah ikonica</title><g id="Layer_2" data-name="Layer 2"><g id="Layer_1-2" data-name="Layer 1"><path class="cls-1" d="M58.42,0,60,2.69l1.5-1.59c.13,1.21.21,2,.31,3,3.3-1.44,2.88,1.52,3.88,3.66l.94-2.52.89.72-.67,2H69.3l-2.62,2.68,1.26,1.86c1.42-.6.23-4.1,3-2.87L73,5.9,73.73,7l2.63-3L78,7.6l.7-.23L78.5,6.09l2.32-1.65L84.3,8.56l1.9-2.94.58,2.16,2-.9c3.62,1.64,1.28,4.36.73,6.76l.88.09L91.69,11l1.47,2,.21-.45a15.43,15.43,0,0,1,2.32,1.1c1.31.91,1.24,2.85,2.94,3.68,1.13.55,1,.95,2.11.13l1.59,2.26,2.8.33-1.07,2c1.35.68,1.09,1.88-.22,2.26-2.1.6-2,1.87-1.26,3.57l.53-1.68c.78-.15,1.38-.24,2-.37.77-.17,1.64-.7,2.27-.49,1.57.52,2.72,1.3,1.07,3.22-.89,1-1.18,2.56-1.75,3.86l.8.5c.52-.69,1.06-1.36,1.54-2.08.78-1.16,1.31-2.87,3.24-.9L110.76,32l3.1,1.43-2.11,7.68.8.61,5.47-2c1.9,1,.49,2.59.11,4.08l.58.39,1.13-1.56c.83,1.41,1.78,3,2.72,4.61l-1.89,1.23,2.68,1.37c1.93,1,1.5,2.7,1.53,4.36a45.66,45.66,0,0,0,.52,4.64l-1.63-.8-.23.39L125.49,60l-3,2.06,2.21,1.08-.17.69-3.18.89,2.36,1.53-.18.4-2.25-.43c.22,3.09-.46,5.72-4.3,6.94l2.51,1,0,.38-1.76.19c.44,1.5-.28,2-2,1.7,3.41,2.28.19,3.39-.53,5.22-.82-.9-1.53-1.67-2.23-2.45l-.36.15c.16.77.31,1.55.46,2.32l-.91-1-1.52,2.87,1.19,2.71-.45.35-.74-1.29-1.36,4.46-1.37-2.22-1.21.73c-.21-4.32-.55-4.86-3-4.9-.13,4-2.53,4.62-7.12,1.81L94.5,91H89.22l1.47-1.61a2.75,2.75,0,0,0-.44-.28c-1.22-.46-3,0-3.33-2a1.52,1.52,0,0,0-1.28-.25q-6.78,3.9-13.48,7.93c-2.53,1.53-3.64,3.91-4.62,6.72-1.94,5.55-1.76,11-.88,16.66.06.39.3,1,.59,1.07,1.89.59,4,1.77,5.7,1.41,2.28-.48,4.1.37,6.06.76a54.12,54.12,0,0,1,6.43,2.1h-49l-.1-.43c2.33-.49,4.66-1.41,7-1.35s4.49-1.25,7-1.12c2.9.15,5.86-1,9.45-1.62-.11-3.17-.19-6.69-.39-10.19a4.5,4.5,0,0,0-.88-2.08,15.62,15.62,0,0,1-2.84-9.26,3.78,3.78,0,0,0-.76-1.83,24.76,24.76,0,0,1-2-3,9.36,9.36,0,0,0-7.54-5.81,3.8,3.8,0,0,0-3,.36c-2,1-4.37,1.16-7,1.75,0-.15-.07.34-.17.89-2,.47-3.83.63-4.34-1.43a14.22,14.22,0,0,0-3-.42c-1.7.16-4,0-4.95.94-2.33,2.43-3,.06-4.38-1l-1.41.94v-2L15.51,89c-.2-.91-.32-1.5-.45-2.13l-2.23-.13L13.4,84c-1.37.19-3.12-2.22-2.76-3.83l-2.92-.86c.31-.89.61-1.76,1-2.77L5.89,77,5.7,75.75,4.18,76l-.3-2.8c-.82-.17-1.8-.34-2.76-.59C.9,72.57.6,72.16.64,72c.06-.33.33-.84.57-.88,1.49-.2,3-.2,4.5-.46a34.08,34.08,0,0,0,3.66-1.09l-.2-.7-3.9.47.15-.78C3,70.12,1.54,69.61,0,66.47l2.14.63c-.31-.63-.52-1-.68-1.39S1.07,64.64.87,64.1a5,5,0,0,1,1.82-.53A10.08,10.08,0,0,1,5,64.42l.31-.81L.69,61.85l.84-1.59L1,60.34C.8,58.7.63,57.06.43,55.17c1.91.6,2.35-.31,2.65-1.72a29.26,29.26,0,0,1,1.46-4l.74.17,1.08,1.63.71-3.06,2.46-.27c1-4.19,1.82-7.82,2.68-11.52l1.61.34-1.4-1.84,3.18-.43,0-.44-2.47-.2c2.88-2,1.7-4.62,1.34-6.87-.16-1-.63-1.64.24-2.57.38-.41.18-1.36.28-2.44l3.44.79L20.94,19l-1-1.83C24.83,20,22.81,14.42,25,13.9l.81,1.5L30.15,9l.78.28.62,3.07.55,0c.07-.73.14-1.46.22-2.31,1.48,0,3.49-2,4.41,1.16-.3-1.43-.59-2.87-1-4.7l1.91.75a13.65,13.65,0,0,0,1.72-2.47c.65-1.61,1.42-1.06,2.42-.42,2.25,1.45,3.21.9,3.34-1.84a13.09,13.09,0,0,1,.28-1.28L47.36,3C49.17,1.42,50,1.74,50.83,4.45L52.7,1.84c.07,3,1,5.07,3.93,6.28L55,3.44C56,2.48,59.36,3.2,58,0ZM71.75,86.7c-4.13,4.72-5.27,7-5,10.24l5.1-5.67C73.17,89.77,75.14,88.29,71.75,86.7Zm-1.31-6c-3.5,3.46-4.39,8.1-5.17,12.8l3.72-9,.39.15c-.45,1.26-.91,2.52-1.37,3.78a11.13,11.13,0,0,0,2.72-3.19c.64-1.11,1.11-2.31,1.65-3.46Zm-6.22,7.49c3.46-5.61,4.19-11.44,1.89-14.86a5.86,5.86,0,0,0-.32,1.91c.47,1.83,1.38,3.24-.36,5.37C64.14,82.15,64.61,85.17,64.22,88.16ZM59.58,92l.93-.2Q59.33,86.39,58.16,81l-.71.15C57.32,84.92,57,88.75,59.58,92Zm10.94,2.12.34.28L79.57,88l-2.11-.72-.91,1.86c-.9.1-1.78-.07-2.11.28C73,90.91,71.81,92.54,70.52,94.12ZM42.8,83.61c.75,1.93,3.12,3.09,6.22,2.94C47.27,84.76,46,82.39,42.8,83.61ZM59.66,105c.9-2.66.3-4.74-2-6.08l-.63.28Q58.36,102.13,59.66,105Zm-2.2-13.4c-.47,2.56-1.14,5.17,2,7C58.77,96.08,58.12,93.86,57.46,91.63Zm-5.88-2.57,3.52,5C55.38,90.14,55.16,89.8,51.58,89.06ZM60,80.76l1.6,6.78C61.74,81.58,61.74,81.58,60,80.76Zm-7.48,6.08-3.89-3.22C49.13,85.66,49.86,87.42,52.51,86.84ZM49.66,83.6l.79-.19L50,79.56C48.72,81,48,82.45,49.66,83.6Z"/></g></g></svg>